<svg width="162" height="48" viewBox="0 0 162 48" xmlns="http://www.w3.org/2000/svg"><title>Google-Play-App</title><defs><linearGradient x1="90.767%" y1="4.839%" x2="-38.328%" y2="71.968%" id="a"><stop stop-color="#00A0FF" offset="0%"/><stop stop-color="#00A1FF" offset=".657%"/><stop stop-color="#00BEFF" offset="26.01%"/><stop stop-color="#00D2FF" offset="51.22%"/><stop stop-color="#00DFFF" offset="76.04%"/><stop stop-color="#00E3FF" offset="100%"/></linearGradient><linearGradient x1="107.545%" y1="50.502%" x2="-129.003%" y2="50.502%" id="b"><stop stop-color="#FFE000" offset="0%"/><stop stop-color="#FFBD00" offset="40.87%"/><stop stop-color="#FFA500" offset="77.54%"/><stop stop-color="#FF9C00" offset="100%"/></linearGradient><linearGradient x1="86.462%" y1="17.773%" x2="-50.088%" y2="193.93%" id="c"><stop stop-color="#FF3A44" offset="0%"/><stop stop-color="#C31162" offset="100%"/></linearGradient><linearGradient x1="-18.716%" y1="-54.089%" x2="42.259%" y2="24.573%" id="d"><stop stop-color="#32A071" offset="0%"/><stop stop-color="#2DA771" offset="6.85%"/><stop stop-color="#15CF74" offset="47.62%"/><stop stop-color="#06E775" offset="80.09%"/><stop stop-color="#00F076" offset="100%"/></linearGradient></defs><g fill-rule="nonzero" fill="none"><path d="M156 48H6c-3.3 0-6-2.7-6-6V6c0-3.3 2.7-6 6-6h150c3.3 0 6 2.7 6 6v36c0 3.3-2.7 6-6 6z" fill="#000"/><path d="M156 1c2.8 0 5 2.3 5 5v36c0 2.8-2.3 5-5 5H6c-2.8 0-5-2.3-5-5V6c0-2.8 2.3-5 5-5h150zm0-1H6C2.7 0 0 2.7 0 6v36c0 3.3 2.7 6 6 6h150c3.3 0 6-2.7 6-6V6c0-3.3-2.7-6-6-6z" fill="#A6A6A6"/><g stroke="#FFF" stroke-width=".2" fill="#FFF"><path d="M56.9 12.3c0 1-.3 1.8-.9 2.4-.7.7-1.6 1.1-2.6 1.1s-1.9-.4-2.6-1.1c-.8-.7-1.2-1.6-1.2-2.7s.4-2 1.1-2.7c.7-.7 1.6-1.1 2.6-1.1.5 0 1 .1 1.5.3.5.2.9.5 1.2.8l-.7.7c-.5-.6-1.1-.9-2-.9-.8 0-1.4.3-2 .8-.6.5-.8 1.2-.8 2.1 0 .9.3 1.5.8 2.1.6.5 1.2.8 2 .8s1.5-.3 2-.8c.3-.3.5-.8.6-1.5h-2.6v-.9h3.5c.1.2.1.4.1.6zM62.4 9.3h-3.3v2.3h3v.9h-3v2.3h3.3v.9h-4.2V8.4h4.2zM66.3 15.6h-.9V9.3h-2v-.9h4.9v.9h-2zM71.9 15.6V8.4h.9v7.2h-.9zM77 15.6h-1V9.3h-2v-.9h5v.9h-2zM88.3 14.7c-.7.7-1.6 1.1-2.6 1.1-1.1 0-1.9-.4-2.6-1.1-.8-.8-1.1-1.6-1.1-2.7s.4-1.9 1.1-2.7c.7-.7 1.6-1.1 2.6-1.1s1.9.4 2.6 1.1c.7.7 1.1 1.6 1.1 2.7s-.4 1.9-1.1 2.7zm-4.6-.6c.5.5 1.2.8 2 .8s1.4-.3 2-.8c.5-.5.8-1.2.8-2.1 0-.8-.3-1.5-.8-2.1-.5-.5-1.2-.8-2-.8s-1.4.3-2 .8c-.5.5-.8 1.2-.8 2.1 0 .8.3 1.5.8 2.1zM90.7 15.6V8.4h1.1l3.5 5.6V8.4h.9v7.2h-1l-3.7-5.9v5.9h-.8z"/></g><path d="M81.8 26.1c-2.8 0-5.1 2.1-5.1 5.1 0 2.9 2.3 5.1 5.1 5.1s5.1-2.2 5.1-5.1c0-3-2.3-5.1-5.1-5.1zm0 8.2c-1.5 0-2.9-1.3-2.9-3.1s1.3-3.1 2.9-3.1c1.5 0 2.9 1.3 2.9 3.1-.1 1.8-1.4 3.1-2.9 3.1zm-11.2-8.2c-2.8 0-5.1 2.1-5.1 5.1 0 2.9 2.3 5.1 5.1 5.1s5.1-2.2 5.1-5.1c0-3-2.3-5.1-5.1-5.1zm0 8.2c-1.5 0-2.9-1.3-2.9-3.1s1.3-3.1 2.9-3.1c1.5 0 2.9 1.3 2.9 3.1s-1.4 3.1-2.9 3.1zm-13.3-6.6v2.2h5.2c-.2 1.2-.6 2.1-1.2 2.7-.8.8-1.9 1.6-4 1.6-3.2 0-5.7-2.6-5.7-5.8 0-3.2 2.5-5.8 5.7-5.8 1.7 0 3 .7 3.9 1.5l1.5-1.5c-1.3-1.2-3-2.2-5.4-2.2-4.4 0-8 3.6-8 7.9 0 4.4 3.7 7.9 8 7.9 2.4 0 4.1-.8 5.5-2.2 1.4-1.4 1.9-3.4 1.9-5.1 0-.5 0-1-.1-1.4h-7.3v.2zm54.4 1.6c-.4-1.1-1.7-3.2-4.4-3.2-2.6 0-4.8 2.1-4.8 5.1 0 2.9 2.2 5.1 5.1 5.1 2.3 0 3.7-1.4 4.3-2.3l-1.7-1.2c-.6.9-1.4 1.4-2.5 1.4s-2-.5-2.5-1.5l6.8-2.8-.3-.6zm-7 1.8c-.1-2 1.5-3 2.7-3 .9 0 1.6.4 1.9 1.1l-4.6 1.9zM99.2 36h2.2V21h-2.2v15zm-3.7-8.8c-.6-.6-1.5-1.1-2.8-1.1-2.6 0-4.9 2.2-4.9 5.1 0 2.9 2.3 5.1 4.9 5.1 1.2 0 2.2-.5 2.7-1.2h.1v.7c0 2-1 3-2.7 3-1.4 0-2.2-1-2.6-1.8l-2 .8c.6 1.4 2 3 4.5 3 2.6 0 4.9-1.5 4.9-5.3v-9.2h-2.1v.9zm-2.6 7.1c-1.5 0-2.8-1.3-2.8-3.1s1.3-3.1 2.8-3.1c1.5 0 2.7 1.3 2.7 3.1s-1.2 3.1-2.7 3.1zM122.2 21h-5.4v15h2.2v-5.7h3.1c2.5 0 4.9-1.8 4.9-4.7 0-2.9-2.4-4.6-4.8-4.6zm0 7.2H119v-5.1h3.2c1.7 0 2.6 1.4 2.6 2.6 0 1.1-.9 2.5-2.6 2.5zm13.9-2.1c-1.6 0-3.3.7-4 2.3l2 .8c.4-.8 1.2-1.1 2-1.1 1.2 0 2.3.7 2.4 1.9v.2c-.4-.2-1.3-.6-2.3-.6-2.1 0-4.3 1.2-4.3 3.4 0 2 1.8 3.3 3.7 3.3 1.5 0 2.3-.7 2.9-1.5h.1V36h2.2v-5.8c-.2-2.6-2.2-4.1-4.7-4.1zm-.3 8.2c-.7 0-1.8-.4-1.8-1.3 0-1.2 1.3-1.6 2.4-1.6 1 0 1.4.2 2 .5-.1 1.4-1.3 2.4-2.6 2.4zm12.7-7.9l-2.6 6.5h-.1l-2.7-6.5h-2.4l4 9.1-2.3 5.1h2.3l6.2-14.1h-2.4v-.1zM128.3 36h2.2V21h-2.2v15z" fill="#FFF"/><path d="M1.5 1c-.3.4-.5 1-.5 1.7v26.5c0 .7.2 1.3.6 1.7l.1.1 14.9-14.9V15.8L1.5 1z" fill="url(#a)" transform="translate(11 8)"/><path d="M21.4 21.1l-5-5V15.8l5-5 .1.1 5.9 3.3c1.7 1 1.7 2.5 0 3.5L21.5 21l-.1.1z" fill="url(#b)" transform="translate(11 8)"/><path d="M21.5 21.1l-5-5.1-15 15c.6.6 1.5.7 2.5.1l17.5-10" fill="url(#c)" transform="translate(11 8)"/><path d="M21.5 10.9L4 1c-1-.6-1.9-.5-2.5.1l15 15 5-5.2z" fill="url(#d)" transform="translate(11 8)"/><g fill="#000"><path d="M32.4 29L15 38.9c-1 .6-1.8.5-2.4 0l-.1.1.1.1c.6.5 1.4.5 2.4 0l17.5-10-.1-.1z" opacity=".2"/><path d="M12.5 38.8c-.3-.4-.6-.9-.6-1.7v.2c0 .7.2 1.3.6 1.7v-.2z" opacity=".12"/></g><path d="M38.4 25.6l-6 3.4.1.1 5.9-3.3c.8-.5 1.3-1.1 1.3-1.7-.1.5-.5 1-1.3 1.5z" fill="#000" opacity=".12"/><path d="M15 9.1l23.4 13.3c.8.4 1.2 1 1.3 1.6 0-.6-.4-1.3-1.3-1.7L15 9c-1.7-1-3-.2-3 1.8v.2c0-2 1.3-2.8 3-1.9z" fill="#FFF" opacity=".25"/></g></svg>