<?xml version="1.0" encoding="UTF-8"?>
<svg version="1.1" xmlns="http://www.w3.org/2000/svg" width="1920" height="1015">
<path d="M0 0 C48.84 0 97.68 0 148 0 C150.02053242 8.75564048 151.9211237 17.46246464 153.57763672 26.28442383 C153.817842 27.55207297 154.05804728 28.81972212 154.3055315 30.12578487 C154.96219048 33.59167329 155.61561575 37.0581641 156.26841521 40.52478123 C156.97038013 44.24947411 157.67531015 47.97360597 158.37983704 51.69781494 C159.74347584 58.90880491 161.10426045 66.12033063 162.46406764 73.33204401 C163.56139576 79.15118702 164.66008871 84.97007095 165.75967407 90.78878784 C165.99394597 92.02850642 165.99394597 92.02850642 166.23295063 93.29326981 C166.38941328 94.12123671 166.54587594 94.9492036 166.70707989 95.8022604 C172.86524866 128.39015483 179.00460921 160.98155544 185.10824203 193.57971025 C185.485324 195.59358127 185.86246684 197.60744089 186.23962402 199.62129784 C188.56786048 212.05353535 190.89422915 224.48611574 193.21277714 236.92016411 C194.0448969 241.3810478 194.87856722 245.84164084 195.71254539 250.30217743 C196.09497004 252.3499374 196.4766228 254.39784169 196.85744667 256.44589996 C197.37077956 259.20655651 197.88662491 261.96673205 198.40307617 264.72680664 C198.55192198 265.53113034 198.70076778 266.33545404 198.85412407 267.16415119 C199.42249896 270.19020953 200.02493718 273.07481155 201 276 C201.22454361 275.18206467 201.44908722 274.36412933 201.68043518 273.52140808 C213.00339706 232.279392 224.35819564 191.04645852 235.79055786 149.83462524 C241.38625544 129.66282029 246.97345885 109.48872567 252.5390625 89.30859375 C252.94652773 87.83120255 252.94652773 87.83120255 253.36222458 86.32396507 C256.00316762 76.74781446 258.64295413 67.17134559 261.28137779 57.59450054 C263.78511864 48.50668632 266.29159269 39.41963447 268.80273438 30.3338623 C269.58132728 27.51657814 270.35867264 24.69895527 271.13476562 21.88098145 C272.12767453 18.27635914 273.12588571 14.67322014 274.125 11.0703125 C274.40843262 10.03873016 274.69186523 9.00714783 274.98388672 7.94430542 C275.23928223 7.02698639 275.49467773 6.10966736 275.7578125 5.16455078 C275.9758252 4.37621857 276.19383789 3.58788635 276.41845703 2.77566528 C277 1 277 1 278 0 C279.91094939 -0.09658904 281.82551866 -0.12187192 283.73890686 -0.12025452 C284.98557632 -0.12162918 286.23224579 -0.12300385 287.51669312 -0.12442017 C288.91094994 -0.12088056 290.30520653 -0.11724574 291.69946289 -0.11352539 C293.15771991 -0.11324353 294.61597707 -0.11340124 296.07423401 -0.1139679 C300.04513485 -0.1142559 304.01600575 -0.10835877 307.98689961 -0.10139394 C312.13225101 -0.09516081 316.27760302 -0.09455663 320.42295837 -0.09336853 C328.27819327 -0.09025509 336.13341432 -0.08204154 343.98864311 -0.07201904 C352.92924399 -0.06085829 361.86984552 -0.05534755 370.81045163 -0.05032361 C389.20697561 -0.03985893 407.6034867 -0.02225925 426 0 C436.68688106 37.31391331 436.68688106 37.31391331 441.53125 54.80078125 C442.00601041 56.51064371 442.48087834 58.22047632 442.95584106 59.93028259 C444.21186081 64.45316135 445.46621773 68.97649952 446.72016144 73.49995422 C447.78765596 77.34995261 448.85618922 81.19966243 449.92468452 85.04938316 C459.275749 118.7418075 468.60003377 152.44166506 477.91162109 186.14501953 C478.97221454 189.98343055 480.03292513 193.82180918 481.09375 197.66015625 C481.47804609 199.05065186 481.47804609 199.05065186 481.87010574 200.46923828 C485.03037508 211.90189924 488.20203771 223.33127819 491.39482498 234.75490189 C491.95613599 236.76345667 492.51700703 238.77213377 493.07772827 240.78085327 C494.71068877 246.62965169 496.34691271 252.47748365 497.99072266 258.32324219 C498.53824787 260.28185578 499.08562288 262.24051137 499.6328125 264.19921875 C499.87825806 265.06606796 500.12370361 265.93291718 500.37658691 266.82603455 C501.25070603 269.9668284 502 272.72304867 502 276 C502.66 276 503.32 276 504 276 C504.04510114 275.42755743 504.09020227 274.85511486 504.13667011 274.26532555 C504.76794256 267.12158582 505.98414105 260.15876043 507.3347168 253.11962891 C507.57304639 251.85875521 507.81137598 250.59788151 508.05692768 249.29879951 C508.71169184 245.83537057 509.37177866 242.3729751 510.03279686 238.91073513 C510.74158673 235.1930645 511.44531992 231.4744365 512.1496582 227.75592041 C513.51675652 220.5425929 514.88833232 213.33012405 516.26148355 206.11794662 C517.84785296 197.78495939 519.42983977 189.45114217 521.01142561 181.11724591 C523.10363302 170.09289238 525.19669067 159.06870104 527.29240417 148.04501343 C531.18159883 127.5865875 535.05953866 107.12607904 538.92368126 86.66290665 C539.70688213 82.51557433 540.4906515 78.3683496 541.27461243 74.22116089 C541.40071414 73.55406707 541.52681584 72.88697325 541.65673882 72.19966447 C542.27916074 68.90706112 542.90164058 65.61446872 543.5241518 62.32188225 C544.72369018 55.97664561 545.92232442 49.63124089 547.11898804 43.28546143 C548.23010729 37.39384989 549.34402858 31.50277519 550.46017456 25.61211395 C550.86528726 23.47128936 551.26935261 21.33026629 551.67230225 19.18903351 C552.21589082 16.30111469 552.76310021 13.41390586 553.3112793 10.52685547 C553.5485727 9.25887588 553.5485727 9.25887588 553.7906599 7.96528053 C554.88586867 2.22826266 554.88586867 2.22826266 556 0 C604.84 0 653.68 0 704 0 C694.10938541 45.79603899 684.13538466 91.57023498 674 137.3125 C673.73857208 138.49241013 673.47714417 139.67232025 673.20779419 140.88798523 C671.86752833 146.93693483 670.52715995 152.98586171 669.1867981 159.03479004 C668.91853336 160.24546646 668.65026863 161.45614288 668.37387466 162.70350647 C667.82961361 165.15971873 667.28533 167.61592599 666.74102402 170.0721283 C660.76345861 197.04767959 654.81438141 224.02948347 648.87179947 251.01276016 C648.06305468 254.68498141 647.25423925 258.35718709 646.44540405 262.02938843 C644.00788146 273.09612789 641.57060779 284.16292214 639.13361073 295.22977734 C635.60374703 311.25947025 632.07271293 327.28890514 628.54102755 343.31819677 C628.1102482 345.27338052 627.67947334 347.22856526 627.24869919 349.18375015 C624.17675939 363.12649021 621.10450031 377.06915987 618.03173828 391.01171875 C617.23664274 394.61949693 616.44155156 398.22727608 615.6464653 401.8350563 C615.12944607 404.18107379 614.61241988 406.52708973 614.09538651 408.8731041 C611.13515801 422.30526991 608.17686714 435.73785856 605.22254944 449.17132568 C603.95033976 454.95611101 602.67717054 460.74068497 601.40366268 466.52518463 C600.4479226 470.86674029 599.4935229 475.2085874 598.5402565 479.55068684 C597.84971046 482.69422451 597.15712985 485.8373139 596.46484375 488.98046875 C596.22456451 490.07722427 595.98428528 491.1739798 595.73672485 492.30397034 C595.51930634 493.28929245 595.30188782 494.27461456 595.07788086 495.28979492 C594.89204941 496.13523361 594.70621796 496.9806723 594.51475525 497.85173035 C594 500 594 500 593 503 C542.18 503 491.36 503 439 503 C426.44351007 458.02493609 413.89421096 413.04794929 401.375 368.0625 C400.80582727 366.01733386 400.23665409 363.97216784 399.66748047 361.92700195 C396.8593847 351.83679389 394.05148011 341.74653264 391.24365234 331.65625 C386.22598514 313.62470762 381.20771703 295.59333266 376.1875 277.5625 C375.96116379 276.74956482 375.73482758 275.93662964 375.50163269 275.09906006 C367.69443474 247.05855356 359.86297549 219.02492437 352 191 C345.25267868 214.45954778 338.64926806 237.95584617 332.14968491 261.48514175 C330.13973644 268.75903538 328.1258605 276.03184375 326.11290932 283.30490685 C325.32532796 286.15073173 324.53792191 288.99660509 323.75053406 291.84248352 C320.12808894 304.93365742 316.49682987 318.0223641 312.859375 331.109375 C312.60572866 332.0219853 312.35208233 332.9345956 312.09074974 333.87486076 C310.54740111 339.42760039 309.00382124 344.98027571 307.46020126 350.53293991 C300.53959676 375.4277304 293.62920815 400.32528302 286.74609375 425.23046875 C286.44615446 426.31561579 286.14621517 427.40076283 285.83718681 428.51879311 C282.91153689 439.10352487 279.98668249 449.68847472 277.06522846 460.27436543 C275.99594999 464.14815531 274.92581645 468.02170865 273.85550117 471.89521217 C273.36043749 473.68769061 272.86576919 475.48027831 272.37153435 477.27298546 C271.69221656 479.73695654 271.01153792 482.20054804 270.33056641 484.6640625 C270.13744716 485.36590825 269.94432791 486.067754 269.74535656 486.79086781 C268.24187482 492.22164986 266.62041899 497.59860337 265 503 C214.18 503 163.36 503 111 503 C98.20757034 446.27291438 85.54376741 389.51860686 72.9375 332.75 C72.63451351 331.3855987 72.63451351 331.3855987 72.32540607 329.99363375 C71.50513868 326.29982576 70.68487328 322.60601732 69.8646102 318.91220838 C67.58047576 308.62633195 65.29617814 298.34049177 63.01171875 288.0546875 C62.70094973 286.65541743 62.70094973 286.65541743 62.38390255 285.22787929 C53.95959796 247.29708918 45.51176488 209.37156654 37.05394125 171.4482379 C34.83458598 161.4970257 32.61608135 151.54562415 30.39802265 141.59412289 C28.81628105 134.49761068 27.23434101 127.40114271 25.65234375 120.3046875 C25.48371606 119.54825455 25.31508837 118.79182159 25.14135075 118.01246643 C21.18234023 100.25344174 17.21816168 82.49560017 13.240448 64.74075317 C11.68127364 57.78103221 10.12517918 50.82062427 8.5702877 43.8599453 C7.43188205 38.76505661 6.2890925 33.67118217 5.14232731 28.57816887 C4.47744999 25.62052882 3.81681472 22.66195471 3.15754509 19.70306015 C2.72572323 17.7711263 2.28858697 15.84038263 1.85121155 13.90969849 C1.6022966 12.78836517 1.35338165 11.66703186 1.09692383 10.51171875 C0.88272293 9.55740967 0.66852203 8.60310059 0.4478302 7.61987305 C0 5 0 5 0 0 Z " fill="#FFFFFF" transform="translate(933,256)"/>
<path d="M0 0 C0.6579657 -0.00282738 1.3159314 -0.00565475 1.99383545 -0.00856781 C5.48970921 -0.02343672 8.98554317 -0.03273831 12.48144531 -0.03710938 C15.29863749 -0.04145069 18.1155159 -0.05518954 20.93261719 -0.078125 C75.15992218 -0.51014698 134.05401282 6.69726235 176.75 43.203125 C177.69746094 43.96882813 177.69746094 43.96882813 178.6640625 44.75 C207.99984843 68.78725191 222.41521385 109.7496377 226.75 146.203125 C226.75 147.523125 226.75 148.843125 226.75 150.203125 C224.20582071 151.47521465 222.21554555 151.46124468 219.3690033 151.62709045 C218.2265213 151.69577835 217.08403931 151.76446625 215.90693665 151.8352356 C214.64721542 151.90644623 213.3874942 151.97765686 212.08959961 152.05102539 C210.75414887 152.12961896 209.41872044 152.20859234 208.08331299 152.28791809 C204.44887385 152.50265301 200.814135 152.71185391 197.17931056 152.91995168 C193.37300111 153.13865396 189.56695948 153.36192573 185.76087952 153.58457947 C179.36102322 153.95826417 172.96097334 154.3284771 166.56079102 154.6965332 C159.17619647 155.12123116 151.79189945 155.55081961 144.40775102 155.98320013 C137.2969628 156.39950386 130.18600384 156.81281402 123.07495308 157.22460747 C120.0540107 157.3995684 117.03312528 157.57546949 114.01228142 157.75212288 C110.44445203 157.96058962 106.87647812 158.16639088 103.30838013 158.37020683 C101.38607527 158.48060405 99.46391591 158.59352591 97.54176331 158.70654297 C91.26508045 159.06226971 85.03672558 159.28042694 78.75 159.203125 C78.51925781 158.11515625 78.28851563 157.0271875 78.05078125 155.90625 C76.08134066 146.91599487 73.76796294 138.53576199 69.75 130.203125 C69.19892578 129.02363281 69.19892578 129.02363281 68.63671875 127.8203125 C61.33223866 113.41216277 48.74109778 104.37115871 33.75 99.203125 C14.11931003 93.29175035 -9.95962838 92.18138817 -28.8125 101.390625 C-38.86918669 106.90335004 -45.45642609 114.0834579 -48.85546875 125.1796875 C-50.58350703 134.04229964 -48.9741847 140.62790173 -44.25 148.203125 C-43.693125 149.110625 -43.13625 150.018125 -42.5625 150.953125 C-26.92535592 166.16764357 0.07477547 169.65129968 20.51138306 174.13653564 C182.79487988 209.85518143 182.79487988 209.85518143 222.75 271.203125 C230.78872161 283.92100732 235.68439917 297.77557151 239.75 312.203125 C239.95915039 312.9451416 240.16830078 313.6871582 240.38378906 314.45166016 C246.2774975 336.91396146 244.87673963 365.97559493 238.75 388.203125 C238.35530518 389.63906006 238.35530518 389.63906006 237.95263672 391.10400391 C230.03254176 418.87139964 215.87563463 442.62586323 195.75 463.203125 C195.02683594 463.98816406 194.30367188 464.77320313 193.55859375 465.58203125 C176.69600658 483.46853264 153.58683653 495.78086668 130.75 504.203125 C129.9357959 504.50557129 129.1215918 504.80801758 128.28271484 505.11962891 C74.73598155 524.56571159 11.6153903 524.70896129 -44.25 517.203125 C-45.53213379 517.03151855 -46.81426758 516.85991211 -48.13525391 516.68310547 C-83.53372037 511.74347659 -122.82675934 502.72443543 -150.25 478.203125 C-151.05308594 477.51863281 -151.85617188 476.83414062 -152.68359375 476.12890625 C-186.04234452 447.14166104 -204.59657685 406.42212867 -212.125 363.453125 C-212.30554932 362.43641724 -212.30554932 362.43641724 -212.48974609 361.39916992 C-213.12354211 357.3885677 -213.29941781 353.50234247 -213.27783203 349.44042969 C-213.27381378 348.45741882 -213.26979553 347.47440796 -213.26565552 346.46160889 C-213.2604892 345.7163092 -213.25532288 344.97100952 -213.25 344.203125 C-194.83927015 343.027362 -176.42840307 341.85377122 -158.01737022 340.68276215 C-149.46870812 340.13898517 -140.9200923 339.59449902 -132.37158203 339.04833984 C-124.92021501 338.5722783 -117.4687644 338.09755093 -110.0172106 337.6244216 C-106.07214445 337.37388669 -102.12712321 337.12268652 -98.18220139 336.86988831 C-94.46745442 336.63186131 -90.75259808 336.39562139 -87.03765106 336.16073799 C-85.02769479 336.03319226 -83.01785824 335.90376412 -81.00802612 335.77427673 C-79.80496826 335.69854935 -78.6019104 335.62282196 -77.36239624 335.5447998 C-76.32077017 335.47843071 -75.2791441 335.41206161 -74.2059536 335.34368134 C-71.21585009 335.20150116 -68.24300008 335.17871127 -65.25 335.203125 C-65.09144531 335.92113281 -64.93289062 336.63914062 -64.76953125 337.37890625 C-64.11311367 340.29107926 -63.43634448 343.19772101 -62.74609375 346.10205078 C-62.40736211 347.53665927 -62.07427364 348.97260895 -61.74609375 350.40966797 C-58.17513489 365.91358102 -53.26331691 381.28827551 -42.25 393.203125 C-41.64671875 393.88503906 -41.0434375 394.56695313 -40.421875 395.26953125 C-25.78258456 410.95023463 -4.72781553 416.8098842 16.11328125 417.5546875 C37.74126338 417.96089144 60.20390612 417.55136404 76.875 401.828125 C85.98121843 391.73134464 90.69696515 380.78004729 90.75 367.203125 C90.05050857 355.10381384 83.37082542 343.46856917 74.5625 335.43359375 C50.82715664 316.61014783 17.02585767 311.59970622 -11.78097534 304.70440674 C-63.84511012 292.2409432 -117.28243828 276.52260482 -157.25 239.203125 C-158.07628906 238.44257813 -158.90257812 237.68203125 -159.75390625 236.8984375 C-171.1278126 226.04071782 -178.83379268 213.45104339 -185.25 199.203125 C-185.73339844 198.14738281 -186.21679688 197.09164062 -186.71484375 196.00390625 C-192.17220348 183.04889729 -194.79387163 168.22411449 -195.25 154.203125 C-195.28996094 153.21957031 -195.32992187 152.23601562 -195.37109375 151.22265625 C-196.05233163 118.96403917 -185.31322064 86.84571647 -164.25 62.203125 C-163.58613281 61.41808594 -162.92226562 60.63304687 -162.23828125 59.82421875 C-152.17832496 48.28326351 -141.2595118 39.18290072 -128.25 31.203125 C-127.62109863 30.81382812 -126.99219727 30.42453125 -126.34423828 30.0234375 C-89.1924438 7.29572951 -42.92051798 0.14688318 0 0 Z " fill="#FFFFFF" transform="translate(213.25,246.796875)"/>
<path d="M0 0 C0.89124573 0.00060425 1.78249146 0.0012085 2.70074463 0.00183105 C47.83120144 0.08434934 94.91547568 5.05238389 135.0625 27.1875 C136.01116943 27.70135254 136.01116943 27.70135254 136.97900391 28.22558594 C147.06600296 33.7434804 155.61698028 40.41285891 164.0625 48.1875 C165.09117187 49.10982422 165.09117187 49.10982422 166.140625 50.05078125 C192.61808468 74.98166034 204.5655085 113.15617839 209.0625 148.1875 C209.0625 149.1775 209.0625 150.1675 209.0625 151.1875 C181.0990288 153.16937708 153.11905865 154.88091752 125.13433838 156.53091431 C121.26974229 156.75883463 117.40529379 156.98904874 113.54095459 157.22128296 C108.89210117 157.50043705 104.24296593 157.77436346 99.59358597 158.04460144 C97.86763283 158.14566797 96.14177403 158.24836204 94.41602707 158.35289001 C83.28333142 159.02541807 72.21547665 159.31435739 61.0625 159.1875 C60.60810547 157.33898437 60.60810547 157.33898437 60.14453125 155.453125 C55.77487268 138.02037568 50.01989059 118.59994826 34.0625 108.1875 C13.0867939 95.9437888 -12.67839081 91.87557362 -36.5 97.8125 C-48.75751143 101.87474686 -58.27210563 107.79552043 -64.375 119.5 C-67.6316032 126.46591805 -68.39295466 134.57312132 -66.06640625 141.94921875 C-60.51729444 153.82977618 -51.57042312 158.7844372 -39.70703125 163.4609375 C-26.08617681 168.29364744 -11.85107451 171.14552387 2.21337891 174.36816406 C141.47657467 206.29149234 141.47657467 206.29149234 184.0625 247.1875 C184.5378418 247.63174316 185.01318359 248.07598633 185.50292969 248.53369141 C206.74987316 268.42285011 219.7268912 295.50578021 224.0625 324.1875 C224.24554687 325.32058594 224.42859375 326.45367188 224.6171875 327.62109375 C225.42713729 334.37390865 225.30691868 341.2077267 225.3125 348 C225.31317474 348.73670929 225.31384949 349.47341858 225.31454468 350.23245239 C225.29774481 361.78934653 224.71917162 372.90710493 222.0625 384.1875 C221.89621094 384.92387695 221.72992187 385.66025391 221.55859375 386.41894531 C218.80255733 398.31583586 214.41837527 409.2367602 209.0625 420.1875 C208.57692627 421.18740967 208.57692627 421.18740967 208.08154297 422.20751953 C201.55191693 435.48254471 193.36692274 447.08489479 183.23828125 457.859375 C181.54316189 459.67318315 179.97003465 461.4897971 178.4375 463.4375 C144.51565285 502.71542828 85.24053795 516.5026613 36.0625 520.1875 C34.91346191 520.27427002 34.91346191 520.27427002 33.74121094 520.36279297 C-35.17185765 525.26851838 -119.08269693 521.24563833 -173.75 474.125 C-177.82658048 470.40639881 -181.40131743 466.41457538 -184.9375 462.1875 C-185.67484375 461.36121094 -186.4121875 460.53492188 -187.171875 459.68359375 C-213.84593195 429.14434702 -227.13367574 389.9848949 -231.40159607 350.18499756 C-231.50217032 349.24821041 -231.60274458 348.31142326 -231.70636654 347.34624863 C-231.78264058 346.63386158 -231.85891462 345.92147453 -231.9375 345.1875 C-215.61813704 343.68696897 -199.2927143 342.49190374 -182.9375 341.4609375 C-180.51765325 341.30695244 -178.09781289 341.15286708 -175.67797852 340.99868774 C-170.65278633 340.67921021 -165.6274654 340.3618569 -160.60205078 340.04589844 C-154.19956538 339.64305484 -147.79753781 339.23336828 -141.39559937 338.82193565 C-136.4163653 338.50294767 -131.43686255 338.18832017 -126.45727539 337.874897 C-124.09715279 337.72569792 -121.73712341 337.57501574 -119.37719727 337.42274094 C-107.21691652 336.63996862 -95.12676646 335.92713682 -82.9375 336.1875 C-82.68734131 337.36180321 -82.68734131 337.36180321 -82.43212891 338.55982971 C-78.20026675 358.36185279 -78.20026675 358.36185279 -70.9375 377.1875 C-70.50050781 378.15171875 -70.06351563 379.1159375 -69.61328125 380.109375 C-61.15339144 397.27155834 -45.66738034 408.10653893 -27.9375 414.1875 C-23.01058642 415.59654739 -18.00506675 416.45434509 -12.9375 417.1875 C-11.6690625 417.38279297 -11.6690625 417.38279297 -10.375 417.58203125 C13.28557091 420.57956979 37.53244026 417.85577746 57.25 403.9375 C65.93704886 395.44349667 72.09730143 384.75173587 72.60375977 372.48461914 C72.72428125 359.09565175 68.95857866 349.35444704 60.0625 339.1875 C39.87399016 318.92662991 5.96212867 313.57723039 -20.92822266 307.24224854 C-28.0904413 305.55328674 -35.23920735 303.80859411 -42.38671875 302.05859375 C-43.08070141 301.88881012 -43.77468407 301.71902649 -44.4896965 301.5440979 C-98.90819505 288.20225515 -164.0027047 266.50758846 -194.83984375 215.7890625 C-212.65574902 185.57629049 -217.57698406 150.09400246 -209.41748047 116.015625 C-203.97678791 95.3225173 -194.06569315 76.2378963 -179.9375 60.1875 C-179.17953125 59.28515625 -178.4215625 58.3828125 -177.640625 57.453125 C-167.57003414 45.80283362 -155.11073301 37.01570646 -141.9375 29.1875 C-141.07850098 28.67558105 -141.07850098 28.67558105 -140.20214844 28.15332031 C-98.55395557 3.74369522 -47.25358847 -0.05987502 0 0 Z " fill="#FFFFFF" transform="translate(709.9375,246.8125)"/>
<path d="M0 0 C6.24956446 5.2292274 12.04037758 10.65216699 17.3125 16.875 C20.66888517 20.75977396 24.34878862 24.12677906 28.19921875 27.515625 C30.76343173 29.79015702 33.27495435 32.10832854 35.77758789 34.44970703 C41.9800234 40.24253914 48.34616765 45.72603365 55 51 C56.21112148 51.98805578 57.42204543 52.9763537 58.6328125 53.96484375 C79.85459789 71.08042473 103.17046324 85.81923456 127 99 C127.86818359 99.48227051 128.73636719 99.96454102 129.63085938 100.46142578 C198.35815605 138.33449758 278.19562118 158.49523089 517.41213989 139.75500488 C541.68173168 132.6445859 565.01700169 123.53580103 588 113 C588.90943359 112.58782227 589.81886719 112.17564453 590.75585938 111.75097656 C635.15795669 91.80480677 635.15795669 91.80480677 672.85005188 61.93157959 C677.8281709 58.87894738 682.77555871 59.47714427 688.5012207 59.54589844 C689.76991501 59.54531433 691.03860931 59.54473022 692.3457489 59.54412842 C695.81664435 59.54298244 699.286985 59.5664721 702.7577517 59.59442425 C706.38788544 59.61945768 710.0180324 59.62178142 713.64823914 59.62652588 C720.51889272 59.63895001 727.38929122 59.67176379 734.25983256 59.71192384 C742.08322186 59.75665923 749.90662346 59.778633 757.73010886 59.79870558 C773.82022182 59.84049709 789.91007834 59.91083795 806 60 C804.67020306 62.74433864 803.39445954 64.88113692 801.3046875 67.109375 C800.76150879 67.69138672 800.21833008 68.27339844 799.65869141 68.87304688 C799.07007324 69.49244141 798.48145508 70.11183594 797.875 70.75 C797.26188965 71.40033203 796.6487793 72.05066406 796.01708984 72.72070312 C791.2849727 77.71141241 786.47596536 82.62492334 781.625 87.5 C780.9841748 88.14549805 780.34334961 88.79099609 779.68310547 89.45605469 C775.84932912 93.27698259 771.89598056 96.90414591 767.79931641 100.44140625 C765.6157047 102.33288212 763.49708525 104.28996489 761.375 106.25 C755.78866803 111.28449066 749.90832432 115.87965472 743.95996094 120.47265625 C741.93989036 122.04684179 739.94140292 123.64554157 737.9453125 125.25 C719.74615244 139.79052295 700.16395336 152.36857381 680 164 C678.88431641 164.64461182 678.88431641 164.64461182 677.74609375 165.30224609 C597.88982367 211.16326539 508.19839418 232.11729361 365 228 C364.31732056 227.9175 363.63464111 227.835 362.93127441 227.75 C331.04554615 223.84063868 299.55541866 216.91517952 269 207 C267.92637207 206.65356445 266.85274414 206.30712891 265.74658203 205.95019531 C223.42689642 192.15290482 183.18092754 172.42861755 146 148 C145.32984863 147.56010742 144.65969727 147.12021484 143.96923828 146.66699219 C125.24717612 134.28484822 107.1511753 120.48321105 90.58203125 105.3359375 C88.4626338 103.41854011 86.3233384 101.53273247 84.16796875 99.65625 C71.36436427 88.47159516 59.48897433 76.52232173 48 64 C47.113125 63.03964844 46.22625 62.07929687 45.3125 61.08984375 C39.97737069 55.24528369 34.92774351 49.19020842 30 43 C29.49339844 42.36594238 28.98679687 41.73188477 28.46484375 41.07861328 C21.46975764 32.29548064 14.71826322 23.36665839 8.25 14.1875 C7.65356689 13.34582275 7.05713379 12.50414551 6.44262695 11.63696289 C5.88921631 10.84281982 5.33580566 10.04867676 4.765625 9.23046875 C4.27868164 8.53332764 3.79173828 7.83618652 3.29003906 7.11791992 C1.89205317 4.82277844 0.93114457 2.51667379 0 0 Z " fill="#CC4141" transform="translate(960,784)"/>
<path d="M0 0 C5.34985714 -0.10115743 10.30067803 0.20681241 15.6015625 1.06640625 C16.30740982 1.18026169 17.01325714 1.29411713 17.74049377 1.41142273 C20.03693158 1.78609718 22.33109495 2.1726328 24.625 2.5625 C25.81749863 2.76365417 25.81749863 2.76365417 27.03408813 2.96887207 C111.93864434 17.38488638 193.02361957 52.80123898 268.01171875 114.44921875 C270.85999001 116.8804882 273.76152084 119.22580895 276.6875 121.5625 C281.31830367 125.32502798 285.49736805 129.3948807 289.6640625 133.66015625 C291.7309772 135.73052733 293.84103287 137.66152121 296.0625 139.5625 C302.54437949 145.12959811 308.4404288 151.23108628 313.99609375 157.71484375 C316.05639811 160.06431363 318.17372419 162.34950816 320.30688477 164.63256836 C326.1442921 170.88621928 331.69524643 177.28288732 337 184 C337.51288574 184.64565918 338.02577148 185.29131836 338.55419922 185.95654297 C391.17815268 252.30980492 426.9104761 329.68218119 449 467 C449.05784668 467.76924805 449.11569336 468.53849609 449.17529297 469.33105469 C450.09423794 481.92360036 450 494.33441 450 507 C416.01 507 382.02 507 347 507 C346.278125 495.8625 345.55625 484.725 344.8125 473.25 C344.35832506 466.50959032 343.90337895 459.76969342 343.421875 453.03125 C343.36382439 452.2187529 343.30577377 451.4062558 343.24596405 450.56913757 C336.16196956 352.10355415 313.98618655 256.34444055 257 174 C256.5659082 173.37158203 256.13181641 172.74316406 255.68457031 172.09570312 C236.08205605 143.85964492 212.7422325 115.09476149 185.53125 93.97265625 C183.1680252 92.13094556 180.90050661 90.20566921 178.63989258 88.24023438 C128.69124508 45.00964518 65.78109375 11.00553853 0 1 C0 0.67 0 0.34 0 0 Z " fill="#CC4141" transform="translate(1445,3)"/>
<path d="M0 0 C0.99773438 0.32806641 1.99546875 0.65613281 3.0234375 0.99414062 C47.88170962 16.07580108 88.84758368 43.17438655 123.6796875 74.89453125 C125.70154184 76.72917685 127.74678522 78.52768786 129.8125 80.3125 C142.6516288 91.5241336 155.32723501 103.07271417 165.94140625 116.44921875 C167.77992293 118.72730488 169.69172264 120.86076296 171.6875 123 C191.84387988 145.48057477 207.77044889 172.78899717 221.6875 199.4375 C222.60668213 201.18921509 222.60668213 201.18921509 223.54443359 202.97631836 C224.1111377 204.07596924 224.6778418 205.17562012 225.26171875 206.30859375 C225.76662842 207.28626709 226.27153809 208.26394043 226.79174805 209.27124023 C227.94561908 211.87718416 228.56944003 214.19257001 229 217 C226.01097297 214.82616216 223.53451558 212.53519564 221.17578125 209.71484375 C216.09791482 203.85243997 210.59504034 198.40901632 205.11328125 192.92797852 C203.26271033 191.07522532 201.42029924 189.21461294 199.578125 187.35351562 C192.69001441 180.43311774 185.66885949 174.05517 178 168 C176.90964643 167.07724228 175.82503122 166.14759522 174.75 165.20703125 C106.7795549 106.02253857 18.22815042 70.823674 -110 53 C-110.86157715 52.92942383 -111.7231543 52.85884766 -112.61083984 52.78613281 C-199.05535529 45.87057158 -288.89922005 63.74858092 -447 149 C-447.91362305 149.68618408 -447.91362305 149.68618408 -448.84570312 150.38623047 C-459.04809134 158.07191661 -468.98811078 166.04342177 -478.41796875 174.6640625 C-479.79956901 175.91398225 -481.18689298 177.15840648 -482.6081543 178.36303711 C-488.94394839 183.76044241 -494.78636375 189.63482554 -500.65698242 195.52661133 C-502.45442236 197.32947341 -504.25722661 199.12684985 -506.06054688 200.92382812 C-507.20605047 202.06999147 -508.35124439 203.21646442 -509.49609375 204.36328125 C-510.03455429 204.89971756 -510.57301483 205.43615387 -511.12779236 205.98884583 C-513.90843562 208.73434408 -513.90843562 208.73434408 -516 212 C-516.66 212 -517.32 212 -518 212 C-516.36718525 206.91122766 -513.31939195 203.00146801 -510.1875 198.75 C-509.6114502 197.96149658 -509.03540039 197.17299316 -508.44189453 196.3605957 C-499.92538827 184.74959688 -491.29469226 173.2530959 -481.88012695 162.35107422 C-480.04193531 160.22088554 -478.22408963 158.07645072 -476.42626953 155.91210938 C-468.92633169 146.93475041 -460.8933189 138.58365326 -452.59985352 130.33911133 C-450.42943439 128.17947446 -448.27000183 126.00926097 -446.11132812 123.83789062 C-439.41600014 117.13658257 -432.73524519 110.64008285 -425.26171875 104.80249023 C-422.91379093 102.93129517 -420.74044366 100.94024283 -418.5625 98.875 C-411.35007682 92.31409524 -403.40974753 86.65490413 -395.56201172 80.88574219 C-393.18145881 79.13356088 -390.81076021 77.3688377 -388.44140625 75.6015625 C-377.35917807 67.39674735 -365.84297643 60.05440921 -354 53 C-353.17725586 52.50677246 -352.35451172 52.01354492 -351.50683594 51.50537109 C-287.49794528 13.33200838 -215.96280524 -9.16195925 -142 -17 C-141.05600342 -17.1023999 -140.11200684 -17.2047998 -139.1394043 -17.31030273 C-92.10187935 -21.85047837 -44.69650277 -14.70712132 0 0 Z " fill="#CC4141" transform="translate(1478,18)"/>
<path d="M0 0 C42.57 0 85.14 0 129 0 C129 42.57 129 85.14 129 129 C86.43 129 43.86 129 0 129 C0 86.43 0 43.86 0 0 Z " fill="#FFFFFF" transform="translate(1791,690)"/>
<path d="M0 0 C42.57 0 85.14 0 129 0 C129 42.57 129 85.14 129 129 C86.43 129 43.86 129 0 129 C0 86.43 0 43.86 0 0 Z " fill="#FFFFFF" transform="translate(1637,690)"/>
<path d="M0 0 C42.57 0 85.14 0 129 0 C129 42.57 129 85.14 129 129 C86.43 129 43.86 129 0 129 C0 86.43 0 43.86 0 0 Z " fill="#FFFFFF" transform="translate(1791,535)"/>
<path d="M0 0 C42.57 0 85.14 0 129 0 C129 42.57 129 85.14 129 129 C86.43 129 43.86 129 0 129 C0 86.43 0 43.86 0 0 Z " fill="#FFFFFF" transform="translate(1637,535)"/>
</svg>
