<svg width="194" height="44" viewBox="0 0 194 44" fill="none" xmlns="http://www.w3.org/2000/svg">
<path d="M71.4035 29.2919H75.5015C75.5015 31.8442 77.4906 32.8507 79.7553 32.8507C81.2411 32.8507 83.4938 32.4193 83.4938 30.4542C83.4938 28.3573 80.5821 28.0577 77.7902 27.2789C74.9383 26.5839 72.0506 25.3617 72.0506 21.8149C72.0506 17.8607 75.7651 16.0034 79.24 16.0034C83.2541 16.0034 86.9447 17.7529 86.9447 22.1983H82.8467C82.7149 19.9097 81.0973 19.2866 79.0483 19.2866C77.7063 19.2866 76.1366 19.8498 76.1366 21.4674C76.1366 22.9532 77.0472 23.1689 81.8762 24.3791C83.3021 24.7027 87.5798 25.6493 87.5798 29.9749C87.5798 33.4978 84.8358 36.1459 79.5875 36.1459C75.3338 36.1459 71.3196 34.0489 71.4035 29.3039V29.2919ZM88.8859 29.2919H92.9839C92.9839 31.8442 94.973 32.8507 97.2376 32.8507C98.7235 32.8507 100.976 32.4193 100.976 30.4542C100.976 28.3573 98.0644 28.0577 95.2725 27.2789C92.4207 26.5839 89.5329 25.3617 89.5329 21.8149C89.5329 17.8607 93.2475 16.0034 96.7224 16.0034C100.737 16.0034 104.427 17.7529 104.427 22.1983H100.329C100.197 19.9097 98.5797 19.2866 96.5307 19.2866C95.1887 19.2866 93.619 19.8498 93.619 21.4674C93.619 22.9532 94.5296 23.1689 99.3585 24.3791C100.784 24.7027 105.062 25.6493 105.062 29.9749C105.062 33.4978 102.318 36.1459 97.0699 36.1459C92.8161 36.1459 88.802 34.0489 88.8859 29.3039V29.2919ZM131.052 16.4468L125.888 35.6666H121.694L118.435 22.5818H118.387L115.187 35.6666H110.91L105.817 16.4468H110.047L113.09 29.5316H113.138L116.481 16.4468H120.436L123.719 29.6873H123.767L126.918 16.4468H131.064H131.052Z" fill="#CC4342"/>
<path d="M131.016 18.0042V16.4465H146.258V18.0042H139.56V35.6663H137.726V18.0042H131.016ZM148.403 19.1665V16.4465H150.104V19.1665H148.403ZM148.403 35.6663V21.7787H150.104V35.6663H148.403ZM165.082 21.7787V34.54C165.082 38.7099 163.417 41.2142 158.911 41.2142C156.143 41.2142 153.363 39.9441 153.148 37.0203H154.849C155.197 39.0693 157.054 39.7883 158.911 39.7883C162.063 39.7883 163.381 37.955 163.381 34.54V32.6587H163.333C162.554 34.3842 160.936 35.5106 158.923 35.5106C154.478 35.5106 152.656 32.3592 152.656 28.381C152.656 24.4029 154.921 21.3833 158.923 21.3833C160.972 21.3833 162.662 22.6534 163.333 24.1872H163.381V21.7907H165.082V21.7787ZM158.923 34.0847C161.859 34.0847 163.393 31.3646 163.393 28.5608C163.393 25.7569 162.158 22.7972 158.923 22.7972C155.688 22.7972 154.346 25.673 154.346 28.5608C154.346 31.4485 155.772 34.0847 158.923 34.0847ZM169.3 27.7579H178.287C178.203 25.2057 176.585 22.8092 173.877 22.8092C171.169 22.8092 169.599 25.2296 169.3 27.7579ZM179.988 29.1838H169.3C169.3 31.6642 170.642 34.6478 173.877 34.6478C176.358 34.6478 177.7 33.2219 178.239 31.0891H179.94C179.209 34.2404 177.412 36.0737 173.877 36.0737C169.468 36.0737 167.61 32.6827 167.61 28.7285C167.61 25.0619 169.468 21.3833 173.877 21.3833C178.287 21.3833 180.12 25.2896 179.988 29.1958V29.1838ZM182.265 35.6663V21.7787H183.823V25.0379H183.871C184.733 22.7733 186.615 21.4792 189.119 21.587V23.2885C186.051 23.1567 183.954 25.3615 183.954 28.2732V35.6783H182.253L182.265 35.6663Z" fill="white"/>
<path d="M44.0597 19.119C43.4965 19.8379 42.5379 20.1255 41.9508 20.8684C41.4355 21.5274 41.2917 22.2823 41.124 23.0851C41.2438 23.2529 41.2558 23.0851 41.3037 23.0252C41.8309 22.3662 42.1185 21.8749 42.8974 21.4196C43.9399 20.8205 44.4791 21.2039 45.198 19.9817C46.3843 17.9686 46.3004 15.5242 44.8265 13.6909C44.7906 14.1223 44.9823 14.5537 45.0183 14.973C45.1381 16.4109 44.9584 17.9447 44.0477 19.107L44.0597 19.119Z" fill="#CC4241"/>
<path d="M43.161 14.1707C43.2089 14.9855 42.5499 16.1358 41.6872 16.2436C40.6447 16.3754 39.0031 14.9255 37.7929 15.1892L39.2068 16.0519C40.2852 16.9626 41.076 18.2686 41.136 19.7065C41.3397 19.7425 41.2558 19.6826 41.3037 19.5987C41.5793 18.9996 41.5194 18.1009 41.5314 17.4538C43.1969 17.4778 44.0237 15.9321 43.4126 14.4343C43.3527 14.3025 43.3527 14.1227 43.173 14.1826H43.161V14.1707Z" fill="#CC4241"/>
<path d="M36.8462 13.931C37.2297 13.907 37.7569 13.7632 38.1284 13.7752C38.8114 13.7752 39.4944 14.3863 40.1654 13.7033C40.3331 13.5355 40.3691 13.2959 40.5129 13.2C40.7405 13.0443 41.4834 12.9963 41.795 12.9244C41.9148 12.9005 41.9268 12.9724 41.9148 12.7687L39.4824 12.3972C38.5477 12.7807 37.6251 13.2839 36.8462 13.9429V13.931Z" fill="#CC4241"/>
<path d="M44.6109 25.6617C44.6109 24.4275 43.868 23.3971 42.8495 23.0615C44.2993 22.6182 45.905 23.2533 47.1392 23.9123C47.1991 22.3905 47.1152 20.9287 46.6719 19.4668L48.9365 20.5572C49.1043 19.4908 47.7143 16.2795 47.223 15.261C49.6675 17.0224 50.8897 20.2577 50.4943 23.2053C50.4583 23.421 49.9311 22.2587 48.5411 21.9592C48.7089 23.5648 48.649 25.1465 48.2296 26.7162C47.259 25.8055 46.2764 24.763 44.9584 24.3796C44.9344 24.4275 45.234 25.5898 44.6109 25.7935V25.6617Z" fill="#CC4241"/>
<path d="M24.4085 38.231C25.391 36.9369 26.781 35.8225 28.1949 35.0077C32.1132 32.755 37.7569 32.6831 40.5009 28.681C40.9562 28.01 41.9148 25.6614 40.6087 25.4697C39.6501 25.3379 39.027 26.3324 38.9312 27.1472C37.6251 27.4708 35.3245 26.9076 34.7014 25.6015C34.4138 24.9904 34.1981 23.888 34.5576 23.2889C34.6295 23.1691 34.7853 23.1451 34.8092 23.0612C34.8332 22.9893 34.7134 22.1626 34.7373 21.8989C34.7613 21.6713 34.8572 21.4556 34.8931 21.2399C35.5282 22.1146 35.9356 23.3488 37.2776 22.7377C39.1948 21.863 38.3321 18.8794 36.99 17.8489C35.8397 16.9622 35.2885 17.789 34.1382 18.1245C34.0304 18.8075 34.1142 19.4905 34.258 20.1495C34.1262 20.2813 33.1916 19.3107 33.0957 19.1789C32.8801 18.9033 32.7363 18.436 32.5445 18.2443C32.233 17.9208 31.7897 17.8609 31.4302 17.3217C31.0827 16.7944 30.7352 15.3565 30.6753 14.7215C30.6034 14.0265 30.843 13.9786 31.3463 13.6191C32.1371 13.0439 33.3234 12.5047 34.258 12.1692C34.5456 12.0614 35.5162 11.8697 35.636 11.7978C36.0195 11.5461 36.355 10.7553 37.0619 10.3719C38.7994 9.43723 42.6577 9.04181 44.5989 9.25749C45.2819 9.32939 46.2525 9.66489 46.8636 9.65291C47.5585 9.65291 48.625 9.29344 49.3679 9.1856C49.6914 9.13767 51.6805 8.92198 51.8003 9.02982C51.9681 9.7967 52.028 10.5156 51.8602 11.2945C51.8123 11.5342 51.4768 12.313 51.5247 12.4448C55.0715 15.069 57.3482 18.5439 58.7022 22.7377C59.1216 24.0438 59.3852 24.7148 59.9244 25.961C61.9135 30.5862 61.9494 35.1994 60.1041 39.8846C59.9364 40.3159 58.7501 42.9281 58.4745 43H56.9168C56.9168 43 56.7131 42.9041 56.7251 42.8802C59.1336 38.9979 60.4397 34.3846 59.4451 29.8313L59.0137 31.3051C58.2948 33.3781 56.3656 36.2898 54.3885 37.3563C54.2807 37.4162 54.2088 37.4881 54.065 37.4641C54.041 37.3203 54.065 37.2364 54.1369 37.1046C54.4245 36.5774 55.0595 35.9423 55.419 35.3432C58.7022 29.9032 58.3787 24.0797 55.1434 18.7236L54.772 18.2084C55.1674 20.4611 54.772 22.7856 53.9332 24.8826L53.4539 25.7693C54.1009 21.839 53.8253 16.6387 50.5302 13.715C49.5356 14.5178 48.4213 14.6735 47.4507 13.7389C47.4147 13.5712 47.5226 13.6311 47.6184 13.6071C48.0498 13.4753 48.4213 13.4034 48.8287 13.1757C49.6674 12.6964 50.4343 11.5821 50.4104 10.5875C48.7088 10.6714 47.0673 10.983 45.6174 11.9176L45.9649 10.983C45.0902 10.7193 44.2154 10.5995 43.3168 10.5156C43.6163 11.0309 43.7361 11.63 43.7002 12.2291C43.6043 12.337 43.0531 11.5342 42.9573 11.4503C42.7416 11.2466 41.9747 10.7433 41.6991 10.6834C41.0161 10.5396 38.1763 11.1747 37.5532 11.5701C37.1338 11.8337 36.6066 12.7564 36.355 12.8642C35.8876 13.0799 34.953 13.1997 34.3539 13.4274C33.7668 13.655 33.0119 13.9786 32.5565 14.3979H33.8027C33.7787 15.2727 32.0652 15.4524 32.257 16.3631C32.2809 16.4709 32.5086 16.8064 32.5925 16.8903C33.4073 17.6092 34.7373 16.4469 35.636 16.3391C38.8233 15.9916 40.9562 21.2998 38.4159 23.3488C37.5292 24.0678 36.6545 23.9719 35.6001 24.2116C35.5162 25.5416 36.8942 25.8771 37.9606 25.9969C39.087 23.7083 41.2438 23.8042 43.149 25.0983C44.1316 25.7693 44.6708 26.6919 45.4496 27.5547C47.7263 30.071 50.4942 32.6951 50.5541 36.3617L49.4158 34.2648C47.8341 31.8683 45.5335 30.059 43.6163 27.9501C42.8974 32.5873 45.881 36.3737 48.8407 39.5251L48.7927 39.8007C48.7927 39.8007 48.7208 39.6449 48.625 39.573C48.1577 39.2375 47.5825 38.9619 47.0912 38.6144C44.1915 36.5534 41.7471 33.8694 41.4715 30.1309C38.9671 33.0186 38.8833 37.3083 39.5902 40.9031C39.71 41.5022 39.9137 42.0773 40.0336 42.6765C39.9257 42.6765 39.8898 42.7004 39.7939 42.6285C39.5782 42.4488 39.0031 41.4183 38.8353 41.1068C37.5173 38.6384 37.1218 35.7386 37.8048 33.0186C36.7024 33.6897 35.3005 33.8694 34.3419 34.6962C32.233 36.4935 30.7352 39.3214 30.0522 41.9815C29.9204 42.0055 29.9803 41.8018 29.9803 41.7059C29.9084 39.7288 30.196 37.9913 31.0108 36.194C31.1186 35.9663 31.3822 35.6428 31.4541 35.463C31.4901 35.3672 31.4541 35.3312 31.3463 35.3552C31.0587 35.4271 30.4955 35.7027 30.196 35.8465C27.1644 37.2484 24.7799 39.7408 23.6416 42.8922L22 43C22 43 22.4553 40.8072 24.4085 38.231Z" fill="#CC4241"/>
</svg>
