<svg
  width="194"
  height="44"
  viewBox="50 -2 184 49"
  fill="none"
  xmlns="http://www.w3.org/2000/svg"
><path d="M113.72 32.2129H118.28C118.28 35.0629 120.5 36.1729 123.02 36.1729C124.67 36.1729 127.19 35.6929 127.19 33.5029C127.19 31.1629 123.95 30.8329 120.83 29.9629C117.65 29.1829 114.44 27.8329 114.44 23.8729C114.44 19.4629 118.58 17.3929 122.45 17.3929C126.92 17.3929 131.03 19.3429 131.03 24.2929H126.47C126.32 21.7429 124.52 21.0529 122.24 21.0529C120.74 21.0529 119 21.6829 119 23.4829C119 25.1329 120.02 25.3729 125.39 26.7229C126.98 27.0829 131.75 28.1329 131.75 32.9629C131.75 36.8929 128.69 39.8329 122.84 39.8329C118.1 39.8329 113.63 37.4929 113.72 32.2129ZM133.202 32.2129H137.762C137.762 35.0629 139.982 36.1729 142.502 36.1729C144.152 36.1729 146.672 35.6929 146.672 33.5029C146.672 31.1629 143.432 30.8329 140.312 29.9629C137.132 29.1829 133.922 27.8329 133.922 23.8729C133.922 19.4629 138.062 17.3929 141.932 17.3929C146.402 17.3929 150.512 19.3429 150.512 24.2929H145.952C145.802 21.7429 144.002 21.0529 141.722 21.0529C140.222 21.0529 138.482 21.6829 138.482 23.4829C138.482 25.1329 139.502 25.3729 144.872 26.7229C146.462 27.0829 151.232 28.1329 151.232 32.9629C151.232 36.8929 148.172 39.8329 142.322 39.8329C137.582 39.8329 133.112 37.4929 133.202 32.2129ZM180.195 17.9029L174.435 39.3229H169.755L166.125 24.7429H166.065L162.495 39.3229H157.725L152.055 17.9029H156.765L160.155 32.4829H160.215L163.935 17.9029H168.345L172.005 32.6629H172.065L175.575 17.9029H180.195Z" fill="#CC4141"/>
<path d="M180.145 19.6429V17.9029H197.125V19.6429H189.655V39.3229H187.615V19.6429H180.145ZM199.527 20.9329V17.9029H201.417V20.9329H199.527ZM199.527 39.3229V23.8429H201.417V39.3229H199.527ZM218.114 23.8429V38.0629C218.114 42.7129 216.254 45.5029 211.244 45.5029C208.154 45.5029 205.064 44.0929 204.824 40.8229H206.714C207.104 43.1029 209.174 43.9129 211.244 43.9129C214.754 43.9129 216.224 41.8729 216.224 38.0629V35.9629H216.164C215.294 37.8829 213.494 39.1429 211.244 39.1429C206.294 39.1429 204.254 35.6329 204.254 31.1929C204.254 26.9329 206.774 23.3929 211.244 23.3929C213.524 23.3929 215.414 24.8029 216.164 26.5129H216.224V23.8429H218.114ZM211.244 37.5529C214.514 37.5529 216.224 34.5229 216.224 31.4029C216.224 28.3729 214.844 24.9829 211.244 24.9829C207.644 24.9829 206.144 28.1929 206.144 31.4029C206.144 34.5229 207.734 37.5529 211.244 37.5529ZM222.814 30.5029H232.834C232.744 27.6529 230.944 24.9829 227.914 24.9829C224.794 24.9829 223.144 27.6829 222.814 30.5029ZM234.724 32.0929H222.814C222.814 34.8529 224.314 38.1829 227.914 38.1829C230.674 38.1829 232.174 36.5929 232.774 34.2229H234.664C233.854 37.7329 231.844 39.7729 227.914 39.7729C222.994 39.7729 220.924 35.9929 220.924 31.5829C220.924 27.5029 222.994 23.3929 227.914 23.3929C232.864 23.3929 234.874 27.7429 234.724 32.0929ZM237.261 39.3229V23.8429H239.001V27.4729H239.061C240.021 24.9529 242.121 23.5129 244.911 23.6329V25.5229C241.491 25.3729 239.151 27.8329 239.151 31.0729V39.3229H237.261Z" fill="white"/>
<g clip-path="url(#clip0_4026_8942)">
<path fill-rule="evenodd" clip-rule="evenodd" d="M39.6626 21.6205C39.4944 21.8123 39.248 22.1979 39.1063 22.4004C39.0729 22.4474 39.576 22.5755 39.7765 23.0707C39.3433 22.8447 38.716 23.0135 38.5942 23.2565C38.44 23.5636 38.4028 23.6906 38.3007 24.0106C38.6356 23.7001 39.3425 23.6899 40.0513 24.0531C40.2093 23.7354 40.3934 23.4104 40.6113 23.0984C40.7108 22.9551 40.4014 22.37 39.5494 22.2385C40.3004 21.9496 40.7871 22.204 41.1053 22.4846C41.1956 22.3882 41.2902 22.295 41.3897 22.2051C41.1064 21.5439 40.1007 21.2011 39.6629 21.6201L39.6626 21.6205Z" fill="#CC4141"/>
<path fill-rule="evenodd" clip-rule="evenodd" d="M39.5771 25.5576C39.6124 25.3081 39.6724 25.0537 39.7609 24.7845C39.2514 24.3732 38.4472 24.3068 38.1086 24.7739C37.9256 25.7529 37.9746 26.7565 38.2544 27.7086C38.5904 27.3681 38.9788 27.0977 39.6367 27.0591C39.5923 26.8225 39.5619 26.5969 39.5483 26.3755C39.5346 26.1593 39.0137 25.7434 38.2084 26.159C38.5194 25.4469 39.5695 25.616 39.5775 25.558L39.5771 25.5576Z" fill="#CC4141"/>
<path fill-rule="evenodd" clip-rule="evenodd" d="M38.4822 28.3561C38.5881 28.6105 38.7115 28.8604 38.8516 29.1034C38.9222 29.2259 39.4439 28.6113 39.9701 28.8263C39.2981 29.2111 39.2408 29.7013 39.3285 29.8159C39.5327 30.0824 39.7613 30.3376 40.013 30.578C40.0741 29.9759 40.5939 29.7893 40.977 29.6911C40.4496 29.1709 40.0851 28.5385 39.7985 27.6797C39.0942 27.5508 38.5638 28.0198 38.4822 28.3557V28.3561Z" fill="#CC4141"/>
<path fill-rule="evenodd" clip-rule="evenodd" d="M90.1737 1.14013C91.0503 0.940699 92.3708 1.07227 93.0307 1.26829C92.9927 -0.915257 90.1369 0.183151 90.1737 1.14013Z" fill="#CC4141"/>
<path fill-rule="evenodd" clip-rule="evenodd" d="M44.2011 18.9865C43.3362 19.2136 42.5461 19.5287 41.8529 19.904C42.0172 19.9655 42.5051 20.2183 42.3821 20.9975C41.963 20.0894 41.04 20.4003 40.9861 20.4379C40.7643 20.5933 40.5571 20.7556 40.3642 20.9228C41.0259 20.7662 41.6232 21.1715 41.9368 21.7452C42.3369 21.4441 42.7868 21.1719 43.2869 20.9384C43.3897 20.8902 43.6084 20.0784 42.8696 19.592C43.9429 19.5962 44.0766 20.3639 44.162 20.5857C44.3621 20.5175 44.5694 20.4538 44.7831 20.3969C45.05 19.8517 44.7414 19.1889 44.2011 18.9857V18.9865Z" fill="#CC4141"/>
<path fill-rule="evenodd" clip-rule="evenodd" d="M48.3034 18.6168C47.2699 18.5452 46.2839 18.5956 45.364 18.7423C45.8264 19.0149 46.006 19.6151 45.7581 20.1877C46.1389 20.124 46.5064 20.1422 46.8888 20.1842C47.0539 20.2024 47.5042 19.8017 47.5031 18.858C47.9693 19.2739 47.6523 20.2817 47.7859 20.2969C47.9651 20.3169 48.1511 20.334 48.3463 20.3424C49.7864 20.4804 49.8141 18.6904 48.3038 18.6168H48.3034Z" fill="#CC4141"/>
<path fill-rule="evenodd" clip-rule="evenodd" d="M78.0464 41.4514C77.68 41.4969 77.6747 41.5852 77.3079 41.5397C77.2153 41.5154 74.3944 41.956 74.1438 41.7695C74.0641 41.7103 76.7419 41.2409 76.6549 41.1731C75.9077 40.5922 74.9738 40.6718 74.1434 40.7109C73.5401 40.7404 73.0014 40.4663 71.9311 40.9573C72.692 40.2892 73.6058 40.4436 74.4639 40.3901C75.1055 40.3499 75.5907 40.235 75.2661 39.9116C74.5265 39.032 73.3788 37.843 73.3199 37.0797C73.307 36.9091 70.6756 36.9838 70.6554 36.7859C70.8316 36.7404 73.621 36.4257 73.7892 36.3563C74.4437 36.0822 75.0539 35.6272 75.7251 35.0425C74.6841 34.9549 74.3207 34.1576 72.8704 34.1473C73.9692 33.6317 75.1127 34.8162 76.4841 34.3578C76.8797 33.993 77.3038 33.5961 77.7753 33.1741C75.9172 32.721 73.8146 31.9903 71.8453 31.9695C71.6236 32.1101 71.4152 32.2463 71.2166 32.3775C72.8324 32.3816 73.4908 33.3363 75.4461 33.2404C73.6043 33.7477 70.8631 32.6322 70.0297 33.1763C69.6136 33.4573 69.2211 33.7174 68.8084 33.9642C68.0893 34.3798 71.5754 34.001 72.5177 34.8131C70.2158 34.2338 68.226 35.0569 67.4871 34.6668C67.3182 34.7449 67.1409 34.823 66.9548 34.9015C67.1113 36.0132 67.6136 36.7631 67.7453 37.4937C68.0695 37.9503 69.4067 38.9508 69.7871 39.2178C70.3213 39.5931 71.4588 39.2511 72.6643 39.7963C71.5477 39.6583 71.209 40.1819 69.9884 39.7751C70.6539 40.5668 71.3859 41.3683 72.0302 42.6798C72.1293 42.7898 73.3928 43.5807 74.006 43.9996H77.0987C77.344 43.5773 77.4936 42.7462 77.1735 42.4011C77.3383 42.386 77.8976 43.3729 77.8812 43.9996H78.4048C78.7021 43.4992 78.7841 42.4682 78.281 42.2248C78.8703 42.3443 79.2811 43.4203 79.2321 43.9996H79.805C79.8889 43.4901 79.7822 42.4239 79.1376 42.1391C79.7128 42.2229 80.5951 43.2884 80.7022 43.9996H80.9831C81.2523 43.2664 80.5662 41.1378 78.046 41.451L78.0464 41.4514Z" fill="#CC4141"/>
<path fill-rule="evenodd" clip-rule="evenodd" d="M103.587 15.7011C102.648 19.7069 98.1008 21.4984 97.365 25.4492C97.0954 21.2379 100.65 19.5177 102.29 16.0325C103.417 13.6393 103.397 11.3155 101.7 9.15277C102.594 15.2977 97.879 14.528 97.5719 19.6785C96.8008 15.7375 99.2272 14.7047 100.227 12.5132C100.966 10.8908 101.041 8.83808 99.7557 6.60297C99.884 9.43752 97.7818 10.142 97.7507 12.2762C97.4371 9.73098 98.6281 8.78538 98.8912 7.15919C99.053 6.1586 98.7116 4.4016 97.8221 3.82453C97.4781 4.54265 95.6527 4.83687 95.3698 4.66436C95.7988 4.74094 96.8236 4.13885 96.9716 3.40253C97.3479 2.84707 97.2104 1.186 95.4871 1.38013C94.6424 1.47568 93.405 1.97047 93.1719 2.26242C93.1268 2.10355 93.7608 1.72857 93.7433 1.60762C92.7478 1.31757 90.987 1.28382 90.1619 1.55644C90.4566 1.62051 90.4 1.65464 90.7493 1.90677C91.012 2.09597 91.6893 2.11379 91.763 2.80992C91.5489 2.26242 90.8434 2.45655 90.3639 2.13199C89.8996 1.81805 89.0795 1.76383 89.0157 1.7771C88.608 1.85824 88.7325 1.80061 88.3426 1.90374C87.9485 2.08422 88.267 2.30678 88.6843 2.4846C89.1346 2.67683 89.9505 2.41939 90.4011 3.21864C89.6384 2.56043 88.862 2.91646 88.3646 2.68973C87.8699 2.46337 87.4386 2.21275 87.0855 2.26886C86.8531 2.34128 86.6288 2.41408 86.4158 2.48384C86.7567 2.5684 87.1322 2.78338 87.2647 2.98319C86.8163 2.63437 85.6652 2.74356 85.5946 2.76859C84.9358 3.00746 84.7627 3.54206 84.2342 4.00425C83.1468 4.53317 81.7558 5.53982 81.1099 6.33604C81.1054 6.3804 81.3263 7.24867 81.4805 7.24487C81.1916 6.66667 81.4027 6.3895 81.4573 6.38571C81.6832 6.3713 81.938 6.37206 81.9619 6.46875C82.1749 7.11217 81.6498 7.39843 81.6642 7.74232C81.7952 7.97702 81.927 8.55978 82.9509 8.98633C83.4737 9.51183 84.2919 9.98957 85.2346 9.92018C84.6393 9.767 84.0584 8.93324 84.126 8.523C83.8902 8.61968 83.2528 8.64471 83.2528 8.64471C83.6036 8.53475 84.1932 8.31067 84.6101 8.11617C83.9681 7.79541 82.7106 7.57322 82.7467 7.55616C82.834 7.51369 84.2991 7.67142 85.0778 7.87389C85.2255 7.79237 85.2616 7.76469 85.3838 7.67559C85.1279 7.42611 83.5744 6.98364 82.9274 6.89226C83.5094 6.80392 85.014 7.12241 85.628 7.35862C85.7088 7.25284 85.721 7.19862 85.732 7.08828C85.3466 6.5169 84.0842 6.13092 83.0474 6.09794C85.9511 5.73774 90.9816 8.81343 89.0769 11.9422C89.157 11.342 89.1099 10.3547 88.5909 9.93231C88.8373 11.4201 88.316 11.9153 87.51 12.1595C87.0225 12.3077 86.0372 11.8982 85.7407 11.2176C85.6113 11.7003 85.6021 12.2508 86.1633 12.6107C86.1523 12.6804 86.1439 12.7498 86.1382 12.8173C86.2324 13.6522 86.8702 14.3794 87.6186 14.6467C87.311 14.3483 87.2286 13.9984 87.1375 13.6374C87.6334 14.3339 88.6156 14.5053 89.0078 14.528C88.7177 14.4818 89.0526 12.6364 90.2739 11.4914C89.9679 12.0969 89.9953 12.4552 90.0154 12.6129C90.9885 12.4798 92.7828 12.5981 93.7354 14.1318C93.8443 13.9881 94.7627 12.3346 94.4692 10.4419C94.8079 10.7786 95.101 11.1922 95.235 11.48C95.4142 10.4806 95.2062 8.60907 94.4252 7.80413C94.7578 7.9046 95.784 8.28262 96.0688 8.63144C95.9279 7.16904 95.0991 6.03196 94.4837 5.46892C95.2684 5.88788 96.9602 7.38061 96.9621 10.1587C96.792 9.79847 96.3053 9.36586 95.8531 9.1615C96.2123 9.84549 96.2822 12.2106 95.8159 13.6476C95.7506 13.2753 95.3584 12.6895 95.254 12.5068C94.8766 13.8827 94.2566 15.559 93.6814 16.0018C93.4665 14.4241 92.1632 13.7041 90.7747 13.6074C90.7436 18.3389 96.0004 20.6972 94.7164 25.0234C94.2745 20.3712 89.892 19.112 89.9152 14.6456C89.6676 14.7942 89.2841 14.9906 88.8563 15.1976C89.5537 17.1958 86.568 19.7573 88.4436 23.4184C85.8068 20.9782 88.1254 18.7014 87.3209 15.9059C87.0384 16.0314 86.7848 16.1421 86.5904 16.2259C85.3929 17.3311 86.2396 17.8005 85.322 19.6633C84.0565 21.9295 86.3334 23.5447 85.1807 26.7743C85.3311 23.3051 83.6412 22.0391 84.388 19.1332C84.8622 18.0568 84.732 16.8458 84.4704 16.9224C83.6051 16.7976 82.878 17.4316 82.0553 17.6306C81.0898 17.8642 80.07 17.7076 79.6847 18.1224C80.0822 19.3061 78.7807 21.7418 79.4872 23.8628C78.5028 22.8531 79.0495 18.9835 78.3418 18.3526C77.6102 18.0424 76.161 18.3617 76.1264 18.7438C76.4886 19.9276 75.1815 20.5202 74.4179 21.2205C73.4517 22.1073 74.1803 22.5024 73.9688 23.2986C73.7547 24.1013 74.1621 24.5396 74.2566 24.9229C74.3997 25.5015 74.0584 26.9354 73.6901 27.668C74.4123 24.2139 72.8864 25.4135 73.1848 23.2459C73.2212 22.9938 72.7645 22.3996 72.8135 22.1483C72.6605 20.8982 73.9491 20.3954 74.2722 19.5651C74.4252 19.247 74.0277 19.0483 74.0098 19.0502C73.3488 19.1385 72.7 19.2204 72.0705 19.2982C71.0849 19.6792 70.9281 21.5329 70.537 23.2664C70.327 24.1964 69.6828 24.6886 69.2739 25.544C68.5422 27.0735 69.2985 27.2479 68.6808 28.5677C68.8558 26.5074 68.3353 27.9103 68.8038 25.1743C68.8965 24.6347 69.7697 23.6148 69.8483 23.1299C70.0882 21.6546 69.4751 20.9573 70.1535 19.5245C69.6922 19.5829 69.0973 19.6625 68.5221 19.7437C67.0338 20.7977 68.1155 22.3731 67.0729 23.3028C67.6075 21.9204 66.675 21.0487 66.9792 19.9787C66.2145 20.1054 65.4483 20.3006 64.6837 20.5513C64.6085 20.5763 64.3895 22.179 63.3378 23.6114C63.9183 22.0584 63.5971 20.9384 63.1684 21.117C62.3673 21.451 61.5864 21.8427 60.8232 22.2745C60.7845 23.2228 59.7025 24.3959 59.5544 26.3872C58.8513 25.3745 59.7906 23.2759 59.3976 23.1375C58.4731 23.732 57.5763 24.3716 56.7065 25.0234C55.541 25.9933 56.6169 27.732 55.4354 28.7459C55.6495 27.806 55.2213 26.7808 55.3663 26.0107L54.8549 26.4099C54.3253 27.7146 54.5793 29.2138 54.9521 29.7029C55.593 29.3222 56.2282 28.9613 56.8797 28.6549C57.5741 28.3084 56.7912 25.9189 57.8634 25.0674C57.5437 25.9379 58.0984 27.2475 58.1944 28.1059C60.201 27.4014 61.7682 24.1229 62.7003 22.452C62.5169 23.7904 61.0116 27.387 60.8172 27.7916C59.9717 29.0788 58.5141 30.3782 57.1116 31.152C57.6652 31.072 60.0442 29.8731 61.1331 29.3643C62.3897 28.777 62.6134 29.6521 64.7334 27.2801C63.3681 29.8663 62.3017 29.654 60.9975 30.3634C58.8327 31.5399 56.7855 31.9281 56.5979 32.0559C55.6537 32.6974 54.5033 33.6923 53.9407 34.6383C53.8719 34.7551 53.9988 34.7115 55.0721 34.528C55.8732 34.3907 56.8994 33.1926 59.1265 33.3344C56.4465 33.7686 56.6784 34.9868 55.9275 35.2438C54.6624 35.6765 53.3161 35.7019 53.2489 35.8137C52.9 36.3957 52.8738 37.3406 52.3768 38.0219C52.2512 38.122 51.9311 38.5956 51.5936 39.1594C51.5146 39.2905 52.6726 38.9159 52.5936 39.0532C52.5211 39.1806 51.2109 39.8214 51.1421 39.9488C50.8054 40.5668 50.5358 41.1423 50.54 41.3406C50.6372 41.5818 51.2652 43.1727 51.7405 44.0011H55.1583C55.2778 43.5355 55.2729 42.9077 55.0163 42.6305C55.1575 42.6176 55.5504 43.3809 55.6389 44.0011H56.5C56.6264 43.501 56.5425 42.8239 56.1306 42.6241C56.6253 42.7249 56.9332 43.443 56.9753 44.0011H57.6375C57.7275 43.5026 57.691 42.8243 57.1663 42.5922C57.8455 42.6752 58.0346 43.3926 58.1109 44.0011H58.5191C58.6261 43.3137 58.3118 42.4462 57.7859 42.2677C57.3223 42.1099 56.6393 41.7585 56.1777 41.7088C55.8838 41.4369 52.272 41.8703 52.4034 41.6474C52.4615 41.5476 55.0295 41.2212 55.151 41.0278C55.6047 40.3029 56.4765 39.0327 57.6132 38.0644C57.7931 37.9116 54.79 38.5755 54.9825 38.4405C55.9229 37.783 58.6743 36.4905 59.8319 36.7434C61.1649 36.4059 62.2318 36.1155 63.1548 35.8194C63.43 35.7386 63.0534 35.3819 61.7352 35.1468C60.9854 35.0129 59.1804 35.5316 57.7214 34.9777C59.0783 35.2321 60.8529 34.3157 62.8621 34.8363C63.9111 35.1077 64.7501 35.2461 64.8371 35.2105C65.5296 34.925 66.175 34.6088 66.8584 34.2262C67.1929 33.9248 67.5878 33.6984 67.3736 33.364C67.0517 32.8597 66.1921 32.2663 63.995 31.8724C67.7411 31.9975 67.2863 32.4142 68.0817 32.6982C68.8972 32.9902 69.0669 33.1141 69.4956 32.6633C70.07 31.9232 70.256 31.629 70.4128 30.9298C70.6577 29.8375 70.1524 29.334 70.1835 28.388C70.201 27.886 70.5856 26.799 70.9679 25.991C71.1767 25.5477 71.9501 23.5898 71.6031 22.2207C72.4471 23.4389 71.4991 25.8052 71.3973 26.1434C71.1008 27.1243 70.9227 27.696 70.9144 28.0885C70.881 29.7579 71.8791 29.4583 71.444 31.0242C72.9217 30.264 71.6593 29.2494 72.4946 28.2632C72.5694 29.8549 73.1742 30.5465 72.4984 31.4606C72.9046 31.4785 73.4426 31.5573 74.066 31.6574C74.596 31.4087 74.0736 30.3782 74.3382 29.6923C74.8785 28.2936 75.5983 26.2916 75.4214 25.4533C76.292 27.4117 75.4829 28.5396 75.361 29.8853C75.2942 30.6212 75.833 31.5422 75.4996 31.8891C76.2244 32.0404 76.967 32.2334 77.7043 32.3953C78.4379 32.3463 78.1584 31.2108 77.4393 30.6663C76.9283 30.2792 76.3854 29.8595 76.8391 28.548C76.8155 29.6737 78.2655 30.272 78.6022 30.9033C79.0366 31.7181 79.3441 32.6034 79.6782 32.6171C80.2443 32.7228 82.2751 33.3613 83.4977 32.4802C83.6013 29.8473 82.3344 29.4993 82.5356 27.3832C82.8701 28.2098 83.4836 28.8001 83.7691 29.2092C83.2869 27.5042 83.0929 25.2785 83.7422 23.9746C83.2266 26.3648 84.5805 28.8767 85.9978 30.6758C86.9613 31.8989 88.4447 33.9149 88.3084 35.4091C88.0715 34.1519 86.7856 32.65 85.9063 32.1731C85.0114 31.6885 84.238 30.7046 84.2528 30.8347C84.3819 31.9467 84.3948 31.924 84.4199 33.0925C84.4613 35.78 88.1098 35.7921 88.4504 38.8458C87.5992 36.6596 84.836 36.6281 84.4613 35.5453C84.4723 36.1424 84.8056 38.3392 84.8728 39.5833C84.8815 39.7429 86.4856 40.7734 86.4944 40.9251C86.5016 41.0483 84.9134 40.2953 84.9203 40.4117C84.9514 40.9183 84.981 41.3402 85.0053 41.5818C85.109 42.6214 85.1154 43.3702 85.9427 44.0019H89.1896C89.3324 43.6372 89.3586 43.128 89.0753 42.4948C89.5309 42.8178 89.7215 43.4146 89.6855 44.0019H90.3544C90.5295 43.5534 90.5883 42.9255 90.2542 42.3075C90.6525 42.5338 90.938 43.2273 90.8943 44.0019H91.4923C91.5777 43.5371 91.5154 42.8811 91.2049 42.2885C91.6415 42.5915 91.984 43.2262 92.0341 44.0019H92.4441C92.6484 43.305 92.5345 42.1805 91.0952 41.603C90.201 41.2443 88.9159 41.3365 87.2867 41.6265C88.3471 41.0445 89.6122 40.8982 89.6122 40.8982C89.3586 40.0473 89.3229 37.4721 90.3032 35.1889C90.4042 34.9538 90.3404 33.0167 89.7982 31.4735C89.1384 29.5948 86.4985 28.3512 87.4276 26.0535C87.3441 28.9745 89.5989 28.9343 90.4983 30.4843C91.1422 31.5937 91.3689 33.1316 91.4156 33.0565C93.3621 27.7066 88.8931 24.8042 90.7523 21.4066C90.3028 24.6571 93.6818 27.6448 92.9422 30.9446C94.5084 29.4576 95.0615 28.0706 95.2468 26.6052C95.6682 28.4179 94.8049 30.6834 94.3219 31.2915C95.9716 30.9514 98.7306 29.8572 99.8935 28.6075C98.4656 30.6212 95.0881 32.2811 93.9347 32.459C93.831 32.5291 93.7551 32.7137 93.7099 32.9761C93.6761 34.1614 96.5897 34.6046 97.278 36.3786C96.3752 35.2237 94.0649 34.8408 93.6974 34.4173C93.7452 35.1236 94.1313 37.4915 94.8766 37.8463C96.0069 38.3851 97.0927 39.6868 98.0818 40.4208C96.9147 40.2062 95.6189 38.9015 95.1086 39.187C95.5915 41.0438 95.4556 43.0309 96.5058 44.0023H100.38C100.542 43.3831 100.563 42.48 100.244 42.1611C100.914 42.4997 101.047 43.5685 101.015 44.0023H101.752C101.919 43.305 101.793 42.2142 101.31 41.9977C102.195 42.2582 102.355 43.4097 102.336 44.0023H102.903C102.959 43.3027 102.779 42.345 102.251 41.9484C102.964 42.1387 103.442 43.219 103.465 44.0023H103.631C103.6 40.8932 100.645 41.0096 98.3248 41.5188C98.4068 41.3622 98.8354 41.0741 99.4022 40.9562C99.0347 40.3017 99.157 39.6447 99.3195 38.8663C99.3563 38.6877 98.3988 39.1465 98.4402 38.9637C98.466 38.8481 99.4934 38.0917 99.5184 37.9745C99.6506 37.3675 99.3817 35.4706 99.2967 34.8609C99.4357 34.3445 98.2416 35.6006 98.4527 35.0656C99.1437 33.3151 101.086 31.9437 101.523 27.6289C101.523 27.6289 101.587 27.2365 101.661 26.8972C102.286 25.9781 102.746 24.946 103.068 23.8165C102.272 24.6548 99.419 26.3792 98.1349 29.2187C98.6277 25.7749 101.985 23.5034 103.239 21.3312C104.174 19.7145 104.199 17.7804 103.588 15.7023L103.587 15.7011ZM85.9252 4.46378C86.5297 4.80123 87.4557 4.95593 88.0377 4.19155C87.6303 5.3328 86.4097 5.17697 85.9252 4.46378ZM88.0909 3.8196C87.7602 3.92235 87.546 4.10814 87.3175 4.19951C86.6405 4.47061 86.2867 4.03344 85.8193 4.03344C84.6291 4.47933 83.8948 4.99953 83.8948 4.99953C84.6234 4.35421 85.7396 3.68121 86.3881 3.47002C87.5529 3.08973 88.0089 3.50263 89.1201 3.92652C88.731 3.92994 88.2412 3.77297 88.0909 3.8196ZM92.7482 12.5606C92.6571 11.4758 92.9631 9.55885 91.5219 7.59445C91.7603 7.60507 92.1745 7.7192 92.3401 7.81929C92.1218 7.16032 91.6039 6.35614 90.4926 5.61717C90.9456 5.63158 91.2877 5.62248 91.815 5.79234C91.5572 5.28958 90.6373 4.4854 90.2067 4.23174C91.195 4.68218 92.4509 5.62513 92.5816 6.46154C91.9897 6.13926 91.7672 6.16884 91.7672 6.16884C92.4916 6.80619 93.1161 7.96337 93.1708 8.84907C93.0242 8.65267 92.8409 8.432 92.5459 8.35617C93.4536 9.98464 92.8344 11.9585 92.7482 12.5606ZM92.547 2.71247C92.7934 2.69845 93.563 2.87589 93.809 2.86148C94.0133 2.25484 95.1428 1.50866 95.7202 1.71795C96.7643 2.09673 96.8357 3.63003 94.5683 4.29506C93.6256 3.27552 93.7323 3.50339 92.547 2.71285V2.71247ZM67.4902 30.8612C66.658 30.0168 66.2396 29.7545 65.8238 28.3891C65.6807 27.9201 65.9662 27.1959 66.014 26.8972C66.0615 26.5991 67.2817 25.7059 66.8713 25.4477C66.4605 25.1902 67.9663 23.7858 67.9663 23.7858L67.6808 24.8084C67.6808 24.8084 67.1565 26.002 66.8713 26.5988C66.5854 27.1952 66.6333 27.707 66.7282 28.3467C66.8231 28.9859 67.3945 29.668 67.7757 30.137C68.1565 30.6053 68.7279 31.629 68.7279 31.629L68.8236 32.3107L67.4902 30.8616V30.8612ZM79.9417 31.9482C79.7633 29.9869 78.4918 29.1941 77.8649 28.3539C77.2009 27.4629 77.8422 26.6689 77.6797 25.575C77.5844 24.9362 77.251 24.4672 76.9651 24.0835C76.2506 23.1246 76.4571 20.7549 76.9651 19.4802C76.5107 21.7941 77.3809 22.9524 77.9488 23.6292C78.2856 24.0308 78.8156 24.2662 78.9656 24.9362C79.108 25.575 78.6322 26.7682 78.7275 27.1527C79.3677 29.7325 80.0655 28.6234 79.9417 31.9482Z" fill="#CC4141"/>
<path fill-rule="evenodd" clip-rule="evenodd" d="M53.6438 27.3589C53.1369 27.7559 52.6354 28.1442 52.1376 28.5157C51.6509 29.1755 52.1395 29.7719 51.7359 30.7615C51.8631 29.4576 51.2485 29.7427 51.3134 29.1114C51.0708 29.2805 50.8153 29.4435 50.5495 29.599C50.2754 30.261 50.349 31.3928 50.8259 31.952C51.327 31.7412 51.8073 31.508 52.2713 31.262C52.3446 31.2233 52.4182 29.5209 52.4911 29.4811C52.7155 29.3586 52.938 30.8964 53.1563 30.7706L53.6741 30.4665C53.2166 29.8143 53.3256 28.0266 53.6438 27.3589Z" fill="#CC4141"/>
<path fill-rule="evenodd" clip-rule="evenodd" d="M42.1592 31.974C41.6596 31.4356 42.4497 30.7626 42.2477 30.6557C41.9717 30.5097 41.7048 30.3323 41.4405 30.1199C40.8274 30.2424 40.5821 30.7489 40.6747 31.1823C41.5848 31.9099 42.605 32.4373 43.9896 32.7289C43.7884 32.3346 43.8047 31.5236 44.2383 31.202C43.8882 31.1747 43.5617 31.1228 43.2527 31.0436C43.1225 31.0102 42.3878 31.315 42.1592 31.9744V31.974Z" fill="#CC4141"/>
<path fill-rule="evenodd" clip-rule="evenodd" d="M49.6607 30.0718C49.4264 30.1852 49.1865 30.2921 48.9431 30.3914C48.7495 30.4703 48.3626 31.0041 48.5691 32.4055C47.8949 31.5061 48.1644 30.6811 48.068 30.7122C47.6405 30.8513 47.2058 30.9666 46.7703 31.053C46.7111 31.0644 46.1837 31.6403 46.4225 32.6212C45.951 32.1044 45.9908 31.345 46.0512 31.1694C45.6917 31.2176 45.4251 31.2335 45.072 31.2377C44.6172 31.7526 44.6711 32.4608 44.9187 32.8912C44.9942 32.9007 45.2114 32.912 45.2881 32.9204C45.5333 32.9359 44.9433 32.1052 45.6245 31.4512C45.2224 32.5867 46.1412 32.9462 46.276 32.9431C46.5486 32.9371 46.8147 32.9211 47.0744 32.8988C47.1443 32.8931 46.9465 32.5488 46.9328 32.2421C46.9142 31.8159 47.3842 31.7113 47.1272 31.1031C47.6416 31.5258 47.2031 31.9952 47.3797 32.3801C47.5285 32.7069 47.8854 32.7998 47.9423 32.7907C48.6337 32.6789 49.2806 32.5113 49.8934 32.3046C49.4659 31.5793 49.4124 30.6921 49.6603 30.0714L49.6607 30.0718Z" fill="#CC4141"/>
</g>
<defs>
<clipPath id="clip0_4026_8942">
<rect width="66" height="44" fill="white" transform="translate(38)"/>
</clipPath>
</defs>
</svg>
