<svg width="15" height="18" viewBox="0 0 15 18" fill="none" xmlns="http://www.w3.org/2000/svg">
<path d="M3.33464 16.5H11.668C12.5884 16.5 13.3346 15.7538 13.3346 14.8333V6.84518C13.3346 6.62416 13.2468 6.4122 13.0906 6.25592L8.57871 1.74408C8.42243 1.5878 8.21047 1.5 7.98946 1.5H3.33464C2.41416 1.5 1.66797 2.24619 1.66797 3.16667V14.8333C1.66797 15.7538 2.41416 16.5 3.33464 16.5Z" fill="white"/>
<path d="M7.5013 7.33333V12.3333M7.5013 12.3333L5.0013 9.83333M7.5013 12.3333L10.0013 9.83333M11.668 16.5H3.33464C2.41416 16.5 1.66797 15.7538 1.66797 14.8333V3.16667C1.66797 2.24619 2.41416 1.5 3.33464 1.5H7.98946C8.21047 1.5 8.42243 1.5878 8.57871 1.74408L13.0906 6.25592C13.2468 6.4122 13.3346 6.62416 13.3346 6.84518V14.8333C13.3346 15.7538 12.5884 16.5 11.668 16.5Z" stroke="#111827" stroke-width="2" stroke-linecap="round" stroke-linejoin="round"/>
</svg>
