<svg width="11" height="15" viewBox="0 0 11 15" fill="none" xmlns="http://www.w3.org/2000/svg">
<path d="M5.25 0.75C6.69922 0.75 7.875 1.92578 7.875 3.375V7.75C7.875 9.19922 6.69922 10.375 5.25 10.375C3.80078 10.375 2.625 9.19922 2.625 7.75V3.375C2.625 1.92578 3.80078 0.75 5.25 0.75ZM1.75 6.65625V7.75C1.75 9.69141 3.30859 11.25 5.25 11.25C7.16406 11.25 8.75 9.69141 8.75 7.75V6.65625C8.75 6.30078 9.02344 6 9.40625 6C9.76172 6 10.0625 6.30078 10.0625 6.65625V7.75C10.0625 10.2109 8.23047 12.207 5.90625 12.5352V13.4375H7.21875C7.57422 13.4375 7.875 13.7383 7.875 14.0938C7.875 14.4766 7.57422 14.75 7.21875 14.75H5.25H3.28125C2.89844 14.75 2.625 14.4766 2.625 14.0938C2.625 13.7383 2.89844 13.4375 3.28125 13.4375H4.59375V12.5352C2.24219 12.207 0.4375 10.2109 0.4375 7.75V6.65625C0.4375 6.30078 0.710938 6 1.09375 6C1.44922 6 1.75 6.30078 1.75 6.65625Z" fill="#FDFDFD"/>
</svg>
