<svg width="381" height="245" viewBox="0 0 381 245" fill="none" xmlns="http://www.w3.org/2000/svg">
<rect x="0.5" width="380" height="245" rx="20" fill="white"/>
<path d="M138.327 118.552L103.27 102.412V98.7671L138.327 82.627V86.445L107.608 100.676L138.327 114.907V118.552Z" fill="#333333"/>
<path d="M271.267 100.676L240.375 86.445V82.627L275.432 98.7671V102.585L240.375 118.725V114.907L271.267 100.676Z" fill="#333333"/>
<path d="M233.6 63.0025C233.8 63.4089 234 63.8148 234.172 64.2331C235.876 68.3457 236.388 72.6952 235.844 77.19C235.686 78.5364 235.273 79.8679 234.866 81.1833C234.809 81.3671 234.752 81.5508 234.695 81.7339C234.267 83.1527 233.491 84.3793 232.706 85.6204L232.585 85.8117C231.262 87.8989 229.642 89.6508 227.82 91.1753C226.461 92.309 224.969 93.2697 223.486 94.2247C223.321 94.3316 223.153 94.4394 222.988 94.5463C221.041 95.8111 218.946 96.7459 216.825 97.608C216.535 97.7259 216.244 97.8418 215.953 97.955L215.932 110.998L208.638 105.34L201.573 128.481C201.383 129.102 200.876 129.575 200.245 129.721L189.568 132.185C189.502 132.2 189.433 132.2 189.366 132.185L178.69 129.721C178.058 129.575 177.552 129.102 177.362 128.481L170.297 105.34L163.003 110.998L162.982 97.955C162.691 97.8417 162.4 97.726 162.11 97.608C159.989 96.7459 157.894 95.8111 155.947 94.5463C155.781 94.4394 155.614 94.3316 155.448 94.2247C153.966 93.2697 152.474 92.309 151.115 91.1753C149.293 89.6507 147.672 87.899 146.35 85.8117L146.229 85.6204C145.444 84.3792 144.668 83.1527 144.239 81.7339C144.183 81.5508 144.126 81.3671 144.069 81.1833C143.661 79.8679 143.249 78.5365 143.091 77.19C142.547 72.6952 143.059 68.3457 144.762 64.2331C144.935 63.8148 145.134 63.4089 145.334 63.0025C145.418 62.8328 145.502 62.663 145.583 62.4922C145.637 62.5007 145.69 62.509 145.739 62.5198C145.779 62.6435 145.823 62.7663 145.868 62.8887C145.957 63.1347 146.046 63.38 146.095 63.6326C146.678 66.8022 147.824 69.7565 149.524 72.429C150.511 73.9748 151.69 75.3931 153.126 76.5738C154.783 77.9331 156.571 78.9405 158.529 79.6184C160.757 80.3908 163.038 80.7383 165.36 80.7505C165.66 80.7516 165.96 80.7541 166.261 80.7566C167.236 80.7652 168.212 80.7738 169.185 80.7282C170.165 80.6871 171.14 80.5534 172.112 80.4148L172.476 80.3641C172.925 80.3015 173.374 80.2389 173.822 80.1733L189.351 75.9986C189.427 75.978 189.508 75.978 189.584 75.9986L205.112 80.1733C205.561 80.2389 206.01 80.3015 206.458 80.3641L206.822 80.4148C207.795 80.5534 208.77 80.6871 209.749 80.7282C210.722 80.7738 211.698 80.7652 212.674 80.7566C212.974 80.7541 213.275 80.7516 213.575 80.7505C215.897 80.7383 218.178 80.3907 220.405 79.6184C222.363 78.9405 224.152 77.9331 225.809 76.5738C227.245 75.3931 228.424 73.9748 229.41 72.429C231.111 69.7565 232.257 66.8022 232.84 63.6326C232.888 63.38 232.978 63.1347 233.067 62.8887C233.111 62.7663 233.156 62.6435 233.196 62.5198C233.244 62.5091 233.298 62.5007 233.351 62.4922C233.433 62.663 233.517 62.8329 233.6 63.0025Z" fill="#CC4141"/>
<path d="M278.754 179.878V158.212H281.189V163.292H281.274C282.617 159.765 285.555 157.75 289.46 157.918V160.563C284.674 160.353 281.399 163.796 281.399 168.331V179.878H278.754Z" fill="#333333"/>
<path d="M258.537 167.533H272.56C272.435 163.544 269.915 159.807 265.674 159.807C261.307 159.807 258.999 163.586 258.537 167.533ZM275.205 169.759H258.537C258.537 173.621 260.635 178.282 265.674 178.282C269.537 178.282 271.637 176.057 272.477 172.74H275.122C273.988 177.652 271.175 180.507 265.674 180.507C258.789 180.507 255.891 175.217 255.891 169.045C255.891 163.334 258.789 157.582 265.674 157.582C272.602 157.582 275.415 163.67 275.205 169.759Z" fill="#333333"/>
<path d="M243.466 179.877L235.109 158.211H238.049L244.851 177.231H244.934L251.652 158.211H254.382L246.279 179.877H243.466Z" fill="#333333"/>
<path d="M218.168 164.846H215.523C215.816 159.765 219.301 157.582 224.297 157.582C228.119 157.582 232.275 158.716 232.275 164.552V176.057C232.275 177.106 232.779 177.652 233.829 177.652C234.122 177.652 234.374 177.61 234.669 177.484V179.71C234.039 179.836 233.66 179.878 232.947 179.878C230.261 179.878 229.841 178.324 229.841 176.099H229.755C227.866 178.912 226.061 180.507 221.862 180.507C217.831 180.507 214.598 178.534 214.598 174.167C214.598 168.121 220.519 167.869 226.229 167.197C228.412 166.987 229.631 166.609 229.631 164.258C229.631 160.689 227.111 159.807 223.961 159.807C220.644 159.807 218.293 161.319 218.168 164.846ZM229.631 171.48V168.037H229.545C229.211 168.667 228.034 168.877 227.321 169.003C222.827 169.8 217.244 169.8 217.244 173.999C217.244 176.645 219.552 178.282 222.072 178.282C226.146 178.282 229.631 175.721 229.631 171.48Z" fill="#333333"/>
<path d="M193.18 179.878V149.898H195.825V161.949H195.909C196.917 159.346 199.772 157.582 202.837 157.582C208.926 157.582 210.772 160.773 210.772 165.938V179.878H208.128V166.358C208.128 162.663 206.909 159.808 202.627 159.808C198.386 159.808 195.951 162.999 195.825 167.24V179.878H193.18Z" fill="#333333"/>
<path d="M165.765 170.01H168.62C168.495 176.182 172.903 178.071 178.404 178.071C181.553 178.071 186.339 176.35 186.339 171.983C186.339 168.582 182.98 167.238 180.167 166.566L173.491 164.929C169.964 164.047 166.731 162.41 166.731 157.707C166.731 154.768 168.62 149.268 177.06 149.268C183.022 149.268 188.145 152.417 188.145 158.589H185.29C185.08 154.054 181.385 151.703 177.102 151.703C173.197 151.703 169.586 153.214 169.586 157.665C169.586 160.478 171.644 161.696 174.121 162.242L181.427 164.047C185.668 165.181 189.195 167.07 189.195 171.941C189.195 173.998 188.355 180.507 177.732 180.507C170.636 180.507 165.429 177.315 165.765 170.01Z" fill="#333333"/>
<path d="M142.957 179.878V149.898H148.919V165.98L156.435 158.17H163.489L155.301 166.148L164.413 179.878H157.191L151.229 170.179L148.919 172.404V179.878H142.957Z" fill="#CC4141"/>
<path d="M124.013 164.846H118.051C118.387 159.304 123.383 157.582 128.254 157.582C132.578 157.582 137.785 158.548 137.785 163.754V175.049C137.785 177.022 137.995 178.996 138.541 179.878H132.495C132.285 179.206 132.117 178.492 132.075 177.778C130.185 179.752 127.456 180.465 124.769 180.465C120.612 180.465 117.379 178.408 117.379 173.957C117.463 164.09 132.075 169.381 131.823 164.51C131.823 161.991 130.059 161.571 127.96 161.571C125.65 161.571 124.223 162.495 124.013 164.846ZM131.823 171.48V169.255C130.815 170.136 128.716 170.178 126.868 170.514C125.021 170.85 123.341 171.522 123.341 173.705C123.341 175.889 125.063 176.477 126.994 176.477C131.655 176.477 131.823 172.824 131.823 171.48Z" fill="#CC4141"/>
<path d="M102.164 179.878V168.205L91.1211 149.898H98.553L105.565 161.739L112.535 149.898H119.883L108.756 168.373V179.878H102.164Z" fill="#CC4141"/>
</svg>
