<svg width="381" height="245" viewBox="0 0 381 245" fill="none" xmlns="http://www.w3.org/2000/svg">
<rect x="0.5" width="380" height="245" rx="20" fill="#333333"/>
<path fill-rule="evenodd" clip-rule="evenodd" d="M169.144 97.5946C168.496 97.6897 167.848 97.7802 167.201 97.8708L166.677 97.9442C165.273 98.1448 163.867 98.3382 162.453 98.3977C161.049 98.4638 159.641 98.4517 158.233 98.4393C157.8 98.4356 157.366 98.432 156.933 98.4304C153.583 98.4127 150.291 97.9097 147.077 96.7915C144.252 95.8102 141.671 94.352 139.28 92.3841C137.208 90.675 135.507 88.6221 134.083 86.3844C131.63 82.5158 129.976 78.2392 129.135 73.6509C129.065 73.2851 128.936 72.93 128.808 72.5738C128.743 72.3967 128.679 72.2192 128.622 72.0401C128.551 72.0246 128.474 72.0123 128.397 72C128.279 72.2473 128.159 72.493 128.038 72.7386C127.749 73.3271 127.461 73.9146 127.212 74.5202C124.754 80.4737 124.015 86.7698 124.8 93.2764C125.028 95.2256 125.624 97.1524 126.212 99.0566C126.294 99.3227 126.377 99.5886 126.457 99.8536C127.076 101.908 128.196 103.683 129.329 105.48L129.503 105.757C131.411 108.778 133.75 111.314 136.379 113.521C138.34 115.162 140.492 116.553 142.631 117.935C142.87 118.09 143.111 118.246 143.35 118.401C146.16 120.232 149.183 121.585 152.243 122.833C152.662 123.004 153.081 123.171 153.502 123.335L153.532 142.216L164.057 134.026L174.251 167.524C174.525 168.423 175.256 169.108 176.167 169.319L192.065 173L207.951 169.319C208.863 169.108 209.593 168.423 209.867 167.524L220.022 134.157L230.37 142.216L230.402 122.148C232.897 121.083 235.345 119.903 237.65 118.401C237.889 118.246 238.128 118.091 238.368 117.936C240.507 116.554 242.66 115.162 244.622 113.521C247.25 111.314 249.589 108.778 251.497 105.757L251.671 105.48C252.804 103.683 253.924 101.908 254.543 99.8536C254.623 99.5901 254.704 99.3261 254.786 99.0619L254.788 99.0566C255.376 97.1524 255.972 95.2256 256.2 93.2764C256.985 86.7698 256.246 80.4737 253.788 74.5202C253.539 73.9146 253.251 73.3271 252.962 72.7387C252.841 72.4931 252.721 72.2473 252.603 72C252.526 72.0123 252.449 72.0246 252.378 72.0401C252.321 72.2191 252.257 72.3964 252.193 72.5734C252.064 72.9296 251.935 73.2851 251.865 73.6509C251.024 78.2392 249.37 82.5158 246.917 86.3844C245.493 88.6221 243.792 90.675 241.72 92.3841C239.329 94.352 236.748 95.8102 233.923 96.7915C230.709 97.9097 227.417 98.4127 224.067 98.4304C223.634 98.432 223.201 98.4356 222.768 98.4393C221.36 98.4517 219.951 98.4638 218.547 98.3977C218.296 98.3872 218.045 98.3722 217.794 98.354L192.065 91.4128L169.144 97.5946Z" fill="#CC4141"/>
</svg>
