<svg width="381" height="245" viewBox="0 0 381 245" fill="none" xmlns="http://www.w3.org/2000/svg">
<rect x="0.5" width="380" height="245" rx="20" fill="white"/>
<path d="M82.5581 132.005L61.5 122.293V120.099L82.5581 110.387V112.684L64.1062 121.248L82.5581 129.812V132.005Z" fill="#333333"/>
<path d="M162.412 121.248L143.855 112.684V110.387L164.914 120.099V122.397L143.855 132.11V129.812L162.412 121.248Z" fill="#333333"/>
<path d="M186.471 132.04V123.33L178.246 109.67H183.782L189.004 118.505L194.196 109.67H199.669L191.381 123.456V132.04H186.471ZM203.267 120.824H198.826C199.076 116.688 202.798 115.404 206.426 115.404C209.647 115.404 213.525 116.124 213.525 120.009V128.437C213.525 129.91 213.681 131.382 214.088 132.04H209.584C209.428 131.539 209.303 131.006 209.271 130.474C207.864 131.946 205.831 132.479 203.83 132.479C200.734 132.479 198.325 130.944 198.325 127.623C198.388 120.26 209.271 124.208 209.084 120.573C209.084 118.693 207.77 118.38 206.207 118.38C204.486 118.38 203.423 119.069 203.267 120.824ZM209.084 125.774V124.114C208.333 124.772 206.77 124.803 205.393 125.054C204.017 125.304 202.766 125.806 202.766 127.435C202.766 129.064 204.049 129.503 205.487 129.503C208.959 129.503 209.084 126.777 209.084 125.774ZM217.378 132.04V109.67H221.819V121.67L227.417 115.842H232.671L226.572 121.795L233.359 132.04H227.98L223.539 124.803L221.819 126.463V132.04H217.378Z" fill="#CA4241"/>
<path d="M234.367 124.431H236.494C236.4 129.036 239.684 130.446 243.78 130.446C246.126 130.446 249.691 129.162 249.691 125.903C249.691 123.365 247.189 122.363 245.094 121.862L240.121 120.64C237.494 119.982 235.086 118.76 235.086 115.251C235.086 113.058 236.494 108.953 242.78 108.953C247.221 108.953 251.036 111.303 251.036 115.909H248.909C248.753 112.525 246.001 110.77 242.811 110.77C239.902 110.77 237.213 111.898 237.213 115.219C237.213 117.319 238.745 118.227 240.591 118.634L246.032 119.982C249.191 120.828 251.818 122.238 251.818 125.872C251.818 127.407 251.193 132.264 243.28 132.264C237.995 132.264 234.117 129.882 234.367 124.431ZM254.785 131.794V109.423H256.755V118.415H256.818C257.568 116.473 259.695 115.157 261.978 115.157C266.513 115.157 267.889 117.538 267.889 121.392V131.794H265.919V121.705C265.919 118.948 265.012 116.817 261.822 116.817C258.663 116.817 256.849 119.198 256.755 122.363V131.794H254.785ZM273.397 120.577H271.427C271.646 116.786 274.242 115.157 277.963 115.157C280.809 115.157 283.905 116.003 283.905 120.358V128.942C283.905 129.726 284.281 130.133 285.063 130.133C285.282 130.133 285.469 130.102 285.688 130.008V131.668C285.219 131.762 284.938 131.794 284.406 131.794C282.404 131.794 282.092 130.634 282.092 128.974H282.029C280.622 131.073 279.277 132.264 276.149 132.264C273.147 132.264 270.739 130.791 270.739 127.533C270.739 123.021 275.149 122.833 279.402 122.332C281.028 122.175 281.935 121.893 281.935 120.138C281.935 117.475 280.059 116.817 277.713 116.817C275.242 116.817 273.491 117.945 273.397 120.577ZM281.935 125.527V122.958H281.873C281.622 123.428 280.747 123.585 280.215 123.679C276.869 124.274 272.709 124.274 272.709 127.407C272.709 129.381 274.429 130.603 276.306 130.603C279.339 130.603 281.935 128.692 281.935 125.527ZM292.241 131.794L286.018 115.627H288.207L293.273 129.82H293.336L298.34 115.627H300.372L294.337 131.794H292.241ZM303.466 122.582H313.911C313.817 119.606 311.941 116.817 308.782 116.817C305.53 116.817 303.81 119.637 303.466 122.582ZM315.881 124.243H303.466C303.466 127.125 305.029 130.603 308.782 130.603C311.659 130.603 313.223 128.942 313.849 126.467H315.819C314.974 130.133 312.879 132.264 308.782 132.264C303.653 132.264 301.495 128.316 301.495 123.71C301.495 119.449 303.653 115.157 308.782 115.157C313.942 115.157 316.038 119.7 315.881 124.243ZM318.526 131.794V115.627H320.34V119.418H320.403C321.403 116.786 323.593 115.282 326.501 115.407V117.381C322.936 117.225 320.496 119.794 320.496 123.178V131.794H318.526Z" fill="#333333"/>
<path d="M138.869 100.294C138.985 100.527 139.1 100.761 139.199 101.002C140.181 103.368 140.476 105.871 140.163 108.457C140.072 109.232 139.834 109.998 139.599 110.755C139.566 110.861 139.533 110.966 139.501 111.072C139.253 111.888 138.806 112.594 138.353 113.308L138.284 113.418C137.521 114.619 136.587 115.627 135.537 116.504C134.753 117.157 133.893 117.71 133.038 118.259C132.943 118.321 132.846 118.383 132.751 118.444C131.628 119.172 130.42 119.71 129.198 120.206C129.03 120.274 128.863 120.34 128.695 120.405L128.683 127.91L124.477 124.655L120.404 137.97C120.294 138.328 120.002 138.6 119.638 138.684L113.483 140.101C113.444 140.11 113.405 140.11 113.366 140.101L107.211 138.684C106.847 138.6 106.555 138.328 106.445 137.97L102.372 124.655L98.1665 127.91L98.1544 120.405C97.9865 120.34 97.8187 120.274 97.6515 120.206C96.4286 119.71 95.2209 119.172 94.0983 118.444C94.0029 118.383 93.9065 118.321 93.811 118.259C92.9563 117.709 92.0963 117.157 91.3125 116.504C90.2621 115.627 89.3277 114.619 88.5654 113.418L88.4957 113.308C88.043 112.594 87.5956 111.888 87.3484 111.072C87.3161 110.966 87.2832 110.861 87.2503 110.755C87.0152 109.998 86.7773 109.232 86.6863 108.457C86.3726 105.871 86.6678 103.368 87.6501 101.002C87.7494 100.761 87.8645 100.527 87.9799 100.294C88.0281 100.196 88.0764 100.098 88.1234 100C88.1542 100.005 88.185 100.01 88.2131 100.016C88.236 100.087 88.2617 100.158 88.2874 100.228C88.3389 100.37 88.3903 100.511 88.4183 100.656C88.7542 102.48 89.4151 104.18 90.3955 105.718C90.9642 106.607 91.6441 107.423 92.4721 108.103C93.4272 108.885 94.4585 109.464 95.5874 109.854C96.8715 110.299 98.1867 110.499 99.5253 110.506C99.6983 110.507 99.8717 110.508 100.045 110.509C100.607 110.514 101.17 110.519 101.731 110.493C102.296 110.469 102.858 110.393 103.419 110.313L103.628 110.284C103.887 110.248 104.146 110.212 104.404 110.174L113.357 107.772C113.401 107.76 113.448 107.76 113.492 107.772L122.445 110.174C122.703 110.212 122.962 110.248 123.221 110.284L123.43 110.313C123.991 110.392 124.553 110.469 125.118 110.493C125.679 110.519 126.242 110.514 126.804 110.509C126.977 110.508 127.151 110.507 127.324 110.506C128.662 110.499 129.978 110.299 131.262 109.854C132.391 109.464 133.422 108.885 134.377 108.103C135.205 107.423 135.885 106.607 136.454 105.718C137.434 104.18 138.095 102.48 138.431 100.656C138.459 100.511 138.51 100.37 138.562 100.228C138.587 100.158 138.613 100.087 138.636 100.016C138.664 100.01 138.695 100.005 138.726 100C138.773 100.098 138.821 100.196 138.869 100.294Z" fill="#CC4141"/>
</svg>
