<svg width="266" height="41" viewBox="0 0 266 41" fill="none" xmlns="http://www.w3.org/2000/svg">
<path d="M21.5581 32.0053L0.5 22.2926V20.0994L21.5581 10.3867V12.6843L3.1062 21.2482L21.5581 29.8121V32.0053Z" fill="#333333"/>
<path d="M101.412 21.2482L82.8555 12.6843V10.3867L103.914 20.0994V22.397L82.8555 32.1097V29.8121L101.412 21.2482Z" fill="#333333"/>
<path d="M125.471 32.0404V23.3303L117.246 9.66992H122.782L128.004 18.5053L133.196 9.66992H138.669L130.381 23.4557V32.0404H125.471ZM142.267 20.8238H137.826C138.076 16.6881 141.798 15.4035 145.426 15.4035C148.647 15.4035 152.525 16.1242 152.525 20.0092V28.4373C152.525 29.9099 152.681 31.3825 153.088 32.0404H148.584C148.428 31.5391 148.303 31.0065 148.271 30.4739C146.864 31.9464 144.831 32.4791 142.83 32.4791C139.734 32.4791 137.325 30.9438 137.325 27.6227C137.388 20.2599 148.271 24.2076 148.084 20.5732C148.084 18.6933 146.77 18.38 145.207 18.38C143.486 18.38 142.423 19.0693 142.267 20.8238ZM148.084 25.7742V24.1136C147.333 24.7716 145.77 24.8029 144.393 25.0536C143.017 25.3042 141.766 25.8055 141.766 27.4347C141.766 29.064 143.049 29.5026 144.487 29.5026C147.959 29.5026 148.084 26.7768 148.084 25.7742ZM156.378 32.0404V9.66992H160.819V21.6698L166.417 15.8422H171.671L165.572 21.7951L172.359 32.0404H166.98L162.539 24.8029L160.819 26.4635V32.0404H156.378Z" fill="#CA4241"/>
<path d="M173.367 24.4308H175.494C175.4 29.0365 178.684 30.4464 182.78 30.4464C185.126 30.4464 188.691 29.1618 188.691 25.9033C188.691 23.3655 186.189 22.3629 184.094 21.8616L179.121 20.6397C176.494 19.9817 174.086 18.7598 174.086 15.2507C174.086 13.0575 175.494 8.95312 181.78 8.95312C186.221 8.95312 190.036 11.303 190.036 15.9087H187.909C187.753 12.5249 185.001 10.7703 181.811 10.7703C178.902 10.7703 176.213 11.8983 176.213 15.2194C176.213 17.3186 177.745 18.2272 179.591 18.6345L185.032 19.9817C188.191 20.8277 190.818 22.2376 190.818 25.872C190.818 27.4072 190.193 32.2636 182.28 32.2636C176.995 32.2636 173.117 29.8824 173.367 24.4308ZM193.785 31.7936V9.42309H195.755V18.4152H195.818C196.568 16.4726 198.695 15.1567 200.978 15.1567C205.513 15.1567 206.889 17.5379 206.889 21.3916V31.7936H204.919V21.7049C204.919 18.9478 204.012 16.8173 200.822 16.8173C197.663 16.8173 195.849 19.1984 195.755 22.3629V31.7936H193.785ZM212.397 20.577H210.427C210.646 16.7859 213.242 15.1567 216.963 15.1567C219.809 15.1567 222.905 16.0027 222.905 20.3577V28.9425C222.905 29.7257 223.281 30.133 224.063 30.133C224.282 30.133 224.469 30.1017 224.688 30.0077V31.6683C224.219 31.7623 223.938 31.7936 223.406 31.7936C221.404 31.7936 221.092 30.6343 221.092 28.9738H221.029C219.622 31.073 218.277 32.2636 215.149 32.2636C212.147 32.2636 209.739 30.791 209.739 27.5326C209.739 23.0209 214.149 22.8329 218.402 22.3316C220.028 22.1749 220.935 21.8929 220.935 20.1384C220.935 17.4752 219.059 16.8173 216.713 16.8173C214.242 16.8173 212.491 17.9452 212.397 20.577ZM220.935 25.5274V22.9582H220.873C220.622 23.4282 219.747 23.5848 219.215 23.6788C215.869 24.2741 211.709 24.2741 211.709 27.4072C211.709 29.3811 213.429 30.603 215.306 30.603C218.339 30.603 220.935 28.6918 220.935 25.5274ZM231.241 31.7936L225.018 15.6267H227.207L232.273 29.8197H232.336L237.34 15.6267H239.372L233.337 31.7936H231.241ZM242.466 22.5822H252.911C252.817 19.6057 250.941 16.8173 247.782 16.8173C244.53 16.8173 242.81 19.6371 242.466 22.5822ZM254.881 24.2428H242.466C242.466 27.1252 244.029 30.603 247.782 30.603C250.659 30.603 252.223 28.9425 252.849 26.4673H254.819C253.974 30.133 251.879 32.2636 247.782 32.2636C242.653 32.2636 240.495 28.3158 240.495 23.7101C240.495 19.4491 242.653 15.1567 247.782 15.1567C252.942 15.1567 255.038 19.6997 254.881 24.2428ZM257.526 31.7936V15.6267H259.34V19.4178H259.403C260.403 16.7859 262.593 15.282 265.501 15.4074V17.3812C261.936 17.2246 259.496 19.7937 259.496 23.1775V31.7936H257.526Z" fill="#333333"/>
<path d="M77.8692 0.293615C77.9845 0.527477 78.0997 0.761055 78.1989 1.00171C79.1812 3.36814 79.4764 5.87085 79.1627 8.45716C79.0717 9.23194 78.8339 9.99808 78.5987 10.755C78.5659 10.8607 78.533 10.9664 78.5007 11.0717C78.2535 11.8881 77.806 12.5939 77.3534 13.3081L77.2837 13.4181C76.5214 14.6192 75.5869 15.6272 74.5365 16.5044C73.7528 17.1567 72.8928 17.7095 72.0381 18.259C71.9426 18.3205 71.8462 18.3826 71.7508 18.4441C70.6282 19.1718 69.4204 19.7098 68.1976 20.2058C68.0303 20.2737 67.8625 20.3403 67.6947 20.4055L67.6826 27.9103L63.4774 24.6548L59.4039 37.9702C59.2944 38.3277 59.0024 38.5997 58.6382 38.6836L52.4828 40.1015C52.4445 40.1103 52.4046 40.1103 52.3662 40.1015L46.2109 38.6836C45.8466 38.5997 45.5546 38.3277 45.4452 37.9702L41.3717 24.6548L37.1665 27.9103L37.1544 20.4055C36.9865 20.3403 36.8187 20.2737 36.6515 20.2058C35.4286 19.7098 34.2209 19.1719 33.0983 18.4441C33.0029 18.3826 32.9065 18.3205 32.811 18.259C31.9563 17.7095 31.0963 17.1567 30.3125 16.5044C29.2621 15.6272 28.3277 14.6192 27.5654 13.4181L27.4957 13.3081C27.043 12.5939 26.5956 11.8881 26.3484 11.0717C26.3161 10.9664 26.2832 10.8607 26.2503 10.755C26.0152 9.99807 25.7773 9.23195 25.6863 8.45716C25.3726 5.87083 25.6678 3.36816 26.6501 1.00171C26.7494 0.761041 26.8645 0.52749 26.9799 0.293615C27.0281 0.196008 27.0764 0.0982976 27.1234 0C27.1542 0.00488149 27.185 0.009699 27.2131 0.0158643C27.236 0.087063 27.2617 0.157729 27.2874 0.228143C27.3389 0.369694 27.3903 0.510837 27.4183 0.656226C27.7542 2.48001 28.4151 4.17993 29.3955 5.71768C29.9642 6.60714 30.6441 7.42324 31.4721 8.10261C32.4272 8.8848 33.4585 9.46442 34.5874 9.85448C35.8715 10.2989 37.1867 10.4989 38.5253 10.5059C38.6983 10.5065 38.8717 10.508 39.0448 10.5094C39.6073 10.5144 40.17 10.5193 40.7311 10.4931C41.2959 10.4694 41.8579 10.3925 42.4186 10.3128L42.6284 10.2836C42.8869 10.2476 43.1458 10.2115 43.4044 10.1738L52.3572 7.77165C52.4013 7.75982 52.4477 7.75982 52.4918 7.77165L61.4447 10.1738C61.7032 10.2115 61.9622 10.2476 62.2207 10.2836L62.4304 10.3128C62.9911 10.3925 63.5532 10.4694 64.118 10.4931C64.6791 10.5193 65.2418 10.5144 65.8042 10.5094C65.9773 10.508 66.1508 10.5065 66.3238 10.5059C67.6623 10.4989 68.9776 10.2989 70.2616 9.85448C71.3905 9.46442 72.4218 8.88478 73.3769 8.10261C74.2049 7.42325 74.8848 6.60712 75.4536 5.71768C76.4339 4.17994 77.0948 2.48 77.4307 0.656226C77.4588 0.510844 77.5102 0.369687 77.5616 0.228143C77.5874 0.15774 77.613 0.0870518 77.6359 0.0158643C77.664 0.00970941 77.6949 0.00487576 77.7256 0C77.7727 0.098284 77.8209 0.196021 77.8692 0.293615Z" fill="#CC4141"/>
</svg>
