<svg width="245" height="147" viewBox="0 0 245 147" fill="none" xmlns="http://www.w3.org/2000/svg">
<path d="M70.3266 70.5517L35.2695 54.4116V50.7671L70.3266 34.627V38.445L39.6083 52.6761L70.3266 66.9072V70.5517Z" fill="white"/>
<path d="M203.267 52.6761L172.375 38.445V34.627L207.432 50.7671V54.5852L172.375 70.7253V66.9072L203.267 52.6761Z" fill="white"/>
<path d="M165.6 15.0025C165.8 15.4089 166 15.8148 166.172 16.2331C167.876 20.3457 168.388 24.6952 167.844 29.19C167.686 30.5364 167.273 31.8679 166.866 33.1833C166.809 33.3671 166.752 33.5508 166.695 33.7339C166.267 35.1527 165.491 36.3793 164.706 37.6204L164.585 37.8117C163.262 39.8989 161.642 41.6508 159.82 43.1753C158.461 44.309 156.969 45.2697 155.486 46.2247C155.321 46.3316 155.153 46.4394 154.988 46.5463C153.041 47.8111 150.946 48.7459 148.825 49.608C148.535 49.7259 148.244 49.8418 147.953 49.955L147.932 62.9977L140.638 57.34L133.573 80.4809C133.383 81.1022 132.876 81.5749 132.245 81.7207L121.568 84.1849C121.502 84.2002 121.433 84.2002 121.366 84.1849L110.69 81.7207C110.058 81.5749 109.552 81.1022 109.362 80.4809L102.297 57.34L95.0028 62.9977L94.9817 49.955C94.6905 49.8417 94.3996 49.726 94.1095 49.608C91.9885 48.7459 89.8938 47.8111 87.9466 46.5463C87.7811 46.4394 87.6139 46.3316 87.4482 46.2247C85.9658 45.2697 84.4742 44.309 83.1148 43.1753C81.2929 41.6507 79.6722 39.899 78.35 37.8117L78.229 37.6204C77.4439 36.3792 76.6679 35.1527 76.2391 33.7339C76.1831 33.5508 76.126 33.3671 76.0691 33.1833C75.6612 31.8679 75.2487 30.5365 75.0908 29.19C74.5467 24.6952 75.0587 20.3457 76.7625 16.2331C76.9346 15.8148 77.1344 15.4089 77.3345 15.0025C77.4181 14.8328 77.5018 14.663 77.5834 14.4922C77.6367 14.5007 77.6902 14.509 77.739 14.5198C77.7787 14.6435 77.8232 14.7663 77.8679 14.8887C77.9571 15.1347 78.0463 15.38 78.0949 15.6326C78.6775 18.8022 79.8238 21.7565 81.5242 24.429C82.5107 25.9748 83.69 27.3931 85.1261 28.5738C86.7827 29.9331 88.5713 30.9405 90.5295 31.6184C92.7567 32.3908 95.0378 32.7383 97.3595 32.7505C97.6596 32.7516 97.9604 32.7541 98.2607 32.7566C99.2363 32.7652 100.212 32.7738 101.185 32.7282C102.165 32.6871 103.14 32.5534 104.112 32.4148L104.476 32.3641C104.925 32.3015 105.374 32.2389 105.822 32.1733L121.351 27.9986C121.427 27.978 121.508 27.978 121.584 27.9986L137.112 32.1733C137.561 32.2389 138.01 32.3015 138.458 32.3641L138.822 32.4148C139.795 32.5534 140.77 32.6871 141.749 32.7282C142.722 32.7738 143.698 32.7652 144.674 32.7566C144.974 32.7541 145.275 32.7516 145.575 32.7505C147.897 32.7383 150.178 32.3907 152.405 31.6184C154.363 30.9405 156.152 29.9331 157.809 28.5738C159.245 27.3931 160.424 25.9748 161.41 24.429C163.111 21.7565 164.257 18.8022 164.84 15.6326C164.888 15.38 164.978 15.1347 165.067 14.8887C165.111 14.7663 165.156 14.6435 165.196 14.5198C165.244 14.5091 165.298 14.5007 165.351 14.4922C165.433 14.663 165.517 14.8329 165.6 15.0025Z" fill="#CC4141"/>
<path d="M210.754 131.878V110.212H213.189V115.292H213.274C214.617 111.765 217.555 109.75 221.46 109.918V112.563C216.674 112.353 213.399 115.796 213.399 120.331V131.878H210.754Z" fill="white"/>
<path d="M190.537 119.533H204.56C204.435 115.544 201.915 111.807 197.674 111.807C193.307 111.807 190.999 115.586 190.537 119.533ZM207.205 121.759H190.537C190.537 125.621 192.635 130.282 197.674 130.282C201.537 130.282 203.637 128.057 204.477 124.74H207.122C205.988 129.652 203.175 132.507 197.674 132.507C190.789 132.507 187.891 127.217 187.891 121.045C187.891 115.334 190.789 109.582 197.674 109.582C204.602 109.582 207.415 115.67 207.205 121.759Z" fill="white"/>
<path d="M175.466 131.877L167.109 110.211H170.049L176.851 129.231H176.934L183.652 110.211H186.382L178.279 131.877H175.466Z" fill="white"/>
<path d="M150.168 116.846H147.523C147.816 111.765 151.301 109.582 156.297 109.582C160.119 109.582 164.275 110.716 164.275 116.552V128.057C164.275 129.106 164.779 129.652 165.829 129.652C166.122 129.652 166.374 129.61 166.669 129.484V131.71C166.039 131.836 165.66 131.878 164.947 131.878C162.261 131.878 161.841 130.324 161.841 128.099H161.755C159.866 130.912 158.061 132.507 153.862 132.507C149.831 132.507 146.598 130.534 146.598 126.167C146.598 120.121 152.519 119.869 158.229 119.197C160.412 118.987 161.631 118.609 161.631 116.258C161.631 112.689 159.111 111.807 155.961 111.807C152.644 111.807 150.293 113.319 150.168 116.846ZM161.631 123.48V120.037H161.545C161.211 120.667 160.034 120.877 159.321 121.003C154.827 121.8 149.244 121.8 149.244 125.999C149.244 128.645 151.552 130.282 154.072 130.282C158.146 130.282 161.631 127.721 161.631 123.48Z" fill="white"/>
<path d="M125.18 131.878V101.898H127.825V113.949H127.909C128.917 111.346 131.772 109.582 134.837 109.582C140.926 109.582 142.772 112.773 142.772 117.938V131.878H140.128V118.358C140.128 114.663 138.909 111.808 134.627 111.808C130.386 111.808 127.951 114.999 127.825 119.24V131.878H125.18Z" fill="white"/>
<path d="M97.7654 122.01H100.62C100.495 128.182 104.903 130.071 110.404 130.071C113.553 130.071 118.339 128.35 118.339 123.983C118.339 120.582 114.98 119.238 112.167 118.566L105.491 116.929C101.964 116.047 98.731 114.41 98.731 109.707C98.731 106.768 100.62 101.268 109.06 101.268C115.022 101.268 120.145 104.417 120.145 110.589H117.29C117.08 106.054 113.385 103.703 109.102 103.703C105.197 103.703 101.586 105.214 101.586 109.665C101.586 112.478 103.644 113.696 106.121 114.242L113.427 116.047C117.668 117.181 121.195 119.07 121.195 123.941C121.195 125.998 120.355 132.507 109.732 132.507C102.636 132.507 97.4294 129.315 97.7654 122.01Z" fill="white"/>
<path d="M74.957 131.878V101.898H80.9193V117.98L88.4351 110.17H95.4892L87.3014 118.148L96.4128 131.878H89.1909L83.2286 122.179L80.9193 124.404V131.878H74.957Z" fill="#CC4141"/>
<path d="M56.013 116.846H50.0507C50.3865 111.304 55.3832 109.582 60.2537 109.582C64.5784 109.582 69.7849 110.548 69.7849 115.754V127.049C69.7849 129.022 69.9949 130.996 70.5407 131.878H64.4946C64.2846 131.206 64.1166 130.492 64.0746 129.778C62.1851 131.752 59.4559 132.465 56.7687 132.465C52.612 132.465 49.3789 130.408 49.3789 125.957C49.4629 116.09 64.0746 121.381 63.8228 116.51C63.8228 113.991 62.0591 113.571 59.9597 113.571C57.6505 113.571 56.2228 114.495 56.013 116.846ZM63.8228 123.48V121.255C62.8149 122.136 60.7155 122.178 58.8681 122.514C57.0206 122.85 55.3412 123.522 55.3412 125.705C55.3412 127.889 57.0626 128.477 58.9941 128.477C63.6548 128.477 63.8228 124.824 63.8228 123.48Z" fill="#CC4141"/>
<path d="M34.1639 131.878V120.205L23.1211 101.898H30.553L37.5649 113.739L44.5349 101.898H51.8828L40.756 120.373V131.878H34.1639Z" fill="#CC4141"/>
</svg>
