<svg width="381" height="245" viewBox="0 0 381 245" fill="none" xmlns="http://www.w3.org/2000/svg">
<rect x="0.5" width="380" height="245" rx="20" fill="white"/>
<path fill-rule="evenodd" clip-rule="evenodd" d="M169.144 97.8412C168.496 97.9353 167.848 98.025 167.201 98.1146L166.677 98.1873C165.273 98.3859 163.867 98.5775 162.453 98.6364C161.049 98.7018 159.641 98.6898 158.233 98.6775C157.8 98.6739 157.366 98.6702 156.933 98.6687C153.583 98.6512 150.291 98.1532 147.077 97.0461C144.252 96.0745 141.671 94.6307 139.28 92.6823C137.208 90.9901 135.507 88.9575 134.083 86.742C131.63 82.9117 129.976 78.6774 129.135 74.1346C129.065 73.7724 128.936 73.4208 128.808 73.0681C128.743 72.8927 128.679 72.717 128.622 72.5397C128.551 72.5243 128.474 72.5122 128.397 72.5C128.279 72.7449 128.159 72.9882 128.038 73.2313C127.749 73.814 127.461 74.3957 127.212 74.9953C124.754 80.8898 124.015 87.1235 124.8 93.5658C125.028 95.4956 125.624 97.4034 126.212 99.2887C126.294 99.5522 126.377 99.8154 126.457 100.078C127.076 102.111 128.196 103.869 129.329 105.648L129.503 105.922C131.411 108.914 133.75 111.425 136.379 113.61C138.34 115.235 140.492 116.612 142.631 117.981C142.87 118.134 143.111 118.288 143.35 118.441C146.16 120.254 149.183 121.594 152.243 122.83C152.662 122.999 153.081 123.165 153.502 123.327L153.532 142.02L164.057 133.911L174.251 167.078C174.525 167.969 175.256 168.646 176.167 168.855L192.065 172.5L207.951 168.855C208.863 168.646 209.593 167.969 209.867 167.078L220.022 134.042L230.37 142.02L230.402 122.151C232.897 121.097 235.345 119.928 237.65 118.441C237.889 118.288 238.128 118.135 238.368 117.981C240.507 116.613 242.66 115.235 244.622 113.61C247.25 111.425 249.589 108.914 251.497 105.922L251.671 105.648C252.804 103.869 253.924 102.111 254.543 100.078C254.623 99.817 254.704 99.5556 254.786 99.2939L254.788 99.2887C255.376 97.4034 255.972 95.4956 256.2 93.5658C256.985 87.1235 256.246 80.8898 253.788 74.9953C253.539 74.3957 253.251 73.814 252.962 73.2313C252.841 72.9882 252.721 72.7449 252.603 72.5C252.526 72.5122 252.449 72.5243 252.378 72.5397C252.321 72.7169 252.257 72.8925 252.193 73.0678C252.064 73.4204 251.935 73.7724 251.865 74.1346C251.024 78.6774 249.37 82.9117 246.917 86.742C245.493 88.9575 243.792 90.9901 241.72 92.6823C239.329 94.6307 236.748 96.0745 233.923 97.0461C230.709 98.1532 227.417 98.6512 224.067 98.6687C223.634 98.6702 223.201 98.6739 222.768 98.6775C221.36 98.6898 219.951 98.7018 218.547 98.6364C218.296 98.6259 218.045 98.6111 217.794 98.5931L192.065 91.7206L169.144 97.8412Z" fill="#CC4141"/>
</svg>
