<svg width="381" height="245" viewBox="0 0 381 245" fill="none" xmlns="http://www.w3.org/2000/svg">
<rect x="0.5" width="380" height="245" rx="20" fill="white"/>
<path d="M131.225 147.302L90.5 128.552V124.318L131.225 105.568V110.004L95.5403 126.536L131.225 143.068V147.302Z" fill="#333333"/>
<path d="M285.66 126.536L249.773 110.004V105.568L290.499 124.318V128.754L249.773 147.503V143.068L285.66 126.536Z" fill="#333333"/>
<path d="M242.175 82.6045C242.407 83.0766 242.639 83.5482 242.839 84.0341C244.818 88.8117 245.413 93.8644 244.781 99.086C244.598 100.65 244.118 102.197 243.645 103.725C243.578 103.939 243.512 104.152 243.447 104.365C242.949 106.013 242.047 107.438 241.135 108.88L240.995 109.102C239.459 111.526 237.576 113.562 235.46 115.333C233.88 116.65 232.148 117.766 230.425 118.875C230.233 118.999 230.039 119.125 229.847 119.249C227.585 120.718 225.151 121.804 222.687 122.805C222.35 122.942 222.012 123.077 221.674 123.209L221.649 138.36L213.176 131.788L204.969 158.67C204.748 159.392 204.16 159.941 203.426 160.11L191.023 162.973C190.946 162.991 190.866 162.991 190.788 162.973L178.386 160.11C177.652 159.941 177.064 159.392 176.843 158.67L168.635 131.788L160.162 138.36L160.138 123.209C159.8 123.077 159.462 122.942 159.125 122.805C156.661 121.804 154.227 120.718 151.965 119.249C151.773 119.124 151.579 118.999 151.386 118.875C149.664 117.766 147.931 116.65 146.352 115.333C144.236 113.562 142.353 111.527 140.817 109.102L140.676 108.88C139.764 107.438 138.863 106.013 138.365 104.365C138.3 104.152 138.233 103.939 138.167 103.725C137.693 102.197 137.214 100.65 137.031 99.086C136.399 93.8644 136.993 88.8117 138.973 84.0341C139.173 83.5482 139.405 83.0767 139.637 82.6045C139.734 82.4074 139.831 82.2102 139.926 82.0117C139.988 82.0216 140.05 82.0313 140.107 82.0437C140.153 82.1875 140.205 82.3302 140.257 82.4723C140.36 82.7581 140.464 83.0431 140.521 83.3366C141.197 87.0186 142.529 90.4506 144.504 93.5552C145.65 95.3509 147.02 96.9986 148.689 98.3702C150.613 99.9493 152.691 101.12 154.966 101.907C157.553 102.804 160.203 103.208 162.9 103.222C163.249 103.223 163.598 103.226 163.947 103.229C165.08 103.239 166.214 103.249 167.345 103.196C168.483 103.149 169.615 102.993 170.745 102.832L171.167 102.773C171.688 102.701 172.21 102.628 172.731 102.552L190.77 97.702C190.859 97.6781 190.953 97.6781 191.041 97.702L209.081 102.552C209.602 102.628 210.123 102.701 210.644 102.773L211.067 102.832C212.197 102.993 213.329 103.149 214.467 103.196C215.598 103.249 216.732 103.239 217.865 103.229C218.214 103.226 218.563 103.223 218.912 103.222C221.609 103.208 224.259 102.804 226.846 101.907C229.121 101.12 231.199 99.9493 233.123 98.3702C234.791 96.9986 236.161 95.3509 237.307 93.5552C239.283 90.4506 240.614 87.0186 241.291 83.3366C241.348 83.0431 241.451 82.7581 241.555 82.4723C241.607 82.3302 241.658 82.1875 241.705 82.0437C241.761 82.0313 241.824 82.0216 241.885 82.0117C241.98 82.2101 242.077 82.4075 242.175 82.6045Z" fill="#CC4141"/>
</svg>
