<svg width="381" height="245" viewBox="0 0 381 245" fill="none" xmlns="http://www.w3.org/2000/svg">
<rect x="0.5" width="380" height="245" rx="20" fill="#333333"/>
<path d="M79.0581 134.451L58 124.738V122.545L79.0581 112.832V115.13L60.6062 123.694L79.0581 132.257V134.451Z" fill="white"/>
<path d="M158.912 123.694L140.355 115.13V112.832L161.414 122.545V124.842L140.355 134.555V132.257L158.912 123.694Z" fill="white"/>
<path d="M182.971 134.486V125.776L174.746 112.115H180.282L185.504 120.951L190.696 112.115H196.169L187.881 125.901V134.486H182.971ZM199.767 123.269H195.326C195.576 119.133 199.298 117.849 202.926 117.849C206.147 117.849 210.025 118.569 210.025 122.455V130.883C210.025 132.355 210.181 133.828 210.588 134.486H206.084C205.928 133.984 205.803 133.452 205.771 132.919C204.364 134.392 202.331 134.924 200.33 134.924C197.234 134.924 194.825 133.389 194.825 130.068C194.888 122.705 205.771 126.653 205.584 123.019C205.584 121.139 204.27 120.825 202.707 120.825C200.986 120.825 199.923 121.515 199.767 123.269ZM205.584 128.219V126.559C204.833 127.217 203.27 127.248 201.893 127.499C200.517 127.75 199.266 128.251 199.266 129.88C199.266 131.509 200.549 131.948 201.987 131.948C205.459 131.948 205.584 129.222 205.584 128.219ZM213.878 134.486V112.115H218.319V124.115L223.917 118.287H229.171L223.072 124.24L229.859 134.486H224.48L220.039 127.248L218.319 128.909V134.486H213.878Z" fill="#CA4241"/>
<path d="M230.867 126.876H232.994C232.9 131.482 236.184 132.892 240.28 132.892C242.626 132.892 246.191 131.607 246.191 128.349C246.191 125.811 243.689 124.808 241.594 124.307L236.621 123.085C233.994 122.427 231.586 121.205 231.586 117.696C231.586 115.503 232.994 111.398 239.28 111.398C243.721 111.398 247.536 113.748 247.536 118.354H245.409C245.253 114.97 242.501 113.216 239.311 113.216C236.402 113.216 233.713 114.344 233.713 117.665C233.713 119.764 235.245 120.672 237.091 121.08L242.532 122.427C245.691 123.273 248.318 124.683 248.318 128.317C248.318 129.853 247.693 134.709 239.78 134.709C234.495 134.709 230.617 132.328 230.867 126.876ZM251.285 134.239V111.868H253.255V120.86H253.318C254.068 118.918 256.195 117.602 258.478 117.602C263.013 117.602 264.389 119.983 264.389 123.837V134.239H262.419V124.15C262.419 121.393 261.512 119.263 258.322 119.263C255.163 119.263 253.349 121.644 253.255 124.808V134.239H251.285ZM269.897 123.022H267.927C268.146 119.231 270.742 117.602 274.463 117.602C277.309 117.602 280.405 118.448 280.405 122.803V131.388C280.405 132.171 280.781 132.578 281.563 132.578C281.782 132.578 281.969 132.547 282.188 132.453V134.114C281.719 134.208 281.438 134.239 280.906 134.239C278.904 134.239 278.592 133.08 278.592 131.419H278.529C277.122 133.518 275.777 134.709 272.649 134.709C269.647 134.709 267.239 133.236 267.239 129.978C267.239 125.466 271.649 125.278 275.902 124.777C277.528 124.62 278.435 124.338 278.435 122.584C278.435 119.921 276.559 119.263 274.213 119.263C271.742 119.263 269.991 120.391 269.897 123.022ZM278.435 127.973V125.404H278.373C278.122 125.873 277.247 126.03 276.715 126.124C273.369 126.719 269.209 126.719 269.209 129.853C269.209 131.826 270.929 133.048 272.806 133.048C275.839 133.048 278.435 131.137 278.435 127.973ZM288.741 134.239L282.518 118.072H284.707L289.773 132.265H289.836L294.84 118.072H296.872L290.837 134.239H288.741ZM299.966 125.028H310.411C310.317 122.051 308.441 119.263 305.282 119.263C302.03 119.263 300.31 122.082 299.966 125.028ZM312.381 126.688H299.966C299.966 129.571 301.529 133.048 305.282 133.048C308.159 133.048 309.723 131.388 310.349 128.913H312.319C311.474 132.578 309.379 134.709 305.282 134.709C300.153 134.709 297.995 130.761 297.995 126.155C297.995 121.894 300.153 117.602 305.282 117.602C310.442 117.602 312.538 122.145 312.381 126.688ZM315.026 134.239V118.072H316.84V121.863H316.903C317.903 119.231 320.093 117.727 323.001 117.853V119.827C319.436 119.67 316.996 122.239 316.996 125.623V134.239H315.026Z" fill="white"/>
<path d="M135.369 102.739C135.485 102.973 135.6 103.206 135.699 103.447C136.681 105.813 136.976 108.316 136.663 110.902C136.572 111.677 136.334 112.443 136.099 113.2C136.066 113.306 136.033 113.412 136.001 113.517C135.753 114.333 135.306 115.039 134.853 115.753L134.784 115.863C134.021 117.064 133.087 118.072 132.037 118.95C131.253 119.602 130.393 120.155 129.538 120.704C129.443 120.766 129.346 120.828 129.251 120.889C128.128 121.617 126.92 122.155 125.698 122.651C125.53 122.719 125.363 122.786 125.195 122.851L125.183 130.356L120.977 127.1L116.904 140.416C116.794 140.773 116.502 141.045 116.138 141.129L109.983 142.547C109.944 142.556 109.905 142.556 109.866 142.547L103.711 141.129C103.347 141.045 103.055 140.773 102.945 140.416L98.8717 127.1L94.6665 130.356L94.6544 122.851C94.4865 122.786 94.3187 122.719 94.1515 122.651C92.9286 122.155 91.7209 121.617 90.5983 120.889C90.5029 120.828 90.4065 120.766 90.311 120.704C89.4563 120.155 88.5963 119.602 87.8125 118.95C86.7621 118.072 85.8277 117.064 85.0654 115.863L84.9957 115.753C84.543 115.039 84.0956 114.333 83.8484 113.517C83.8161 113.412 83.7832 113.306 83.7503 113.2C83.5152 112.443 83.2773 111.677 83.1863 110.902C82.8726 108.316 83.1678 105.813 84.1501 103.447C84.2494 103.206 84.3645 102.973 84.4799 102.739C84.5281 102.641 84.5764 102.544 84.6234 102.445C84.6542 102.45 84.685 102.455 84.7131 102.461C84.736 102.532 84.7617 102.603 84.7874 102.673C84.8389 102.815 84.8903 102.956 84.9183 103.102C85.2542 104.925 85.9151 106.625 86.8955 108.163C87.4642 109.052 88.1441 109.869 88.9721 110.548C89.9272 111.33 90.9585 111.91 92.0874 112.3C93.3715 112.744 94.6867 112.944 96.0253 112.951C96.1983 112.952 96.3717 112.953 96.5448 112.955C97.1073 112.96 97.67 112.965 98.2311 112.938C98.7959 112.915 99.3579 112.838 99.9186 112.758L100.128 112.729C100.387 112.693 100.646 112.657 100.904 112.619L109.857 110.217C109.901 110.205 109.948 110.205 109.992 110.217L118.945 112.619C119.203 112.657 119.462 112.693 119.721 112.729L119.93 112.758C120.491 112.838 121.053 112.915 121.618 112.938C122.179 112.965 122.742 112.96 123.304 112.955C123.477 112.953 123.651 112.952 123.824 112.951C125.162 112.944 126.478 112.744 127.762 112.3C128.891 111.91 129.922 111.33 130.877 110.548C131.705 109.869 132.385 109.052 132.954 108.163C133.934 106.625 134.595 104.925 134.931 103.102C134.959 102.956 135.01 102.815 135.062 102.673C135.087 102.603 135.113 102.532 135.136 102.461C135.164 102.455 135.195 102.45 135.226 102.445C135.273 102.544 135.321 102.641 135.369 102.739Z" fill="#CC4141"/>
</svg>
